<svg xmlns="http://www.w3.org/2000/svg" xml:space="preserve" id="圖層_1" x="0" y="0" preserveAspectRatio="xMidYMid" style="shape-rendering:auto;background:0 0;width:200px;height:200px;margin:0;animation:none;display:block" version="1.1" viewBox="20.12 16.54 59.75 66.91"><g class="ldl-scale" style="transform-origin:50px 50px;animation:none;transform:matrix(.8,0,0,.8,0,0)"><g class="ldl-ani"><g class="ldl-layer" style="transform-origin:50px 50px;transform-box:view-box;animation:none;transform:matrix(.97254,0,0,.97254,0,0)"><path fill="#333" d="m45.5 8.2-29.4 17c-2.8 1.6-4.5 4.6-4.5 7.8v34c0 3.2 1.7 6.2 4.5 7.8l29.4 17c2.8 1.6 6.2 1.6 9 0l29.4-17c2.8-1.6 4.5-4.6 4.5-7.8V33c0-3.2-1.7-6.2-4.5-7.8l-29.4-17c-2.8-1.6-6.2-1.6-9 0" class="ldl-ani" style="stroke-width:1px;fill:#000;animation:none"/></g><g class="ldl-layer" style="transform-origin:50px 50px;transform-box:view-box;animation:none;transform:matrix(.91,0,0,.91,0,0)"><path fill="#abbd81" d="M67.1 44.6H55.4V32.9c0-3-2.4-5.4-5.4-5.4s-5.4 2.4-5.4 5.4v11.7H32.9c-3 0-5.4 2.4-5.4 5.4s2.4 5.4 5.4 5.4h11.7v11.7c0 3 2.4 5.4 5.4 5.4s5.4-2.4 5.4-5.4V55.4h11.7c3 0 5.4-2.4 5.4-5.4s-2.4-5.4-5.4-5.4" class="ldl-ani" style="stroke-width:1px;fill:#ff8911;animation:none"/></g></g></g></svg>