<svg xmlns="http://www.w3.org/2000/svg" xml:space="preserve" id="圖層_1" width="47" height="47" x="0" y="0" style="background-size:initial;background-repeat-y:initial;background-repeat-x:initial;background-position-y:initial;background-position-x:initial;background-origin:initial;background-color:initial;background-clip:initial;background-attachment:initial;width:100%;height:100%;animation-play-state:paused" version="1.1" viewBox="0 0 100 100"><g class="ldl-scale" style="transform-origin:50%;animation-play-state:paused;transform:rotate(0) scale(.8)"><path fill="#333" d="M76.5 90h-53C16 90 10 84 10 76.5v-53C10 16 16 10 23.5 10h53C84 10 90 16 90 23.5v53C90 84 84 90 76.5 90" style="animation-play-state:paused"/><path fill="#e15b64" d="M63.9 29 50 42.9 36.1 29c-2-2-5.2-2-7.1 0s-2 5.2 0 7.1L42.9 50 29 63.9c-2 2-2 5.2 0 7.1 2 2 5.2 2 7.1 0L50 57.1 63.9 71c2 2 5.2 2 7.1 0 2-2 2-5.2 0-7.1L57.1 50 71 36.1c2-2 2-5.2 0-7.1-1.9-2-5.1-2-7.1 0" style="fill:#fc3158;animation-play-state:paused"/></g></svg>