<svg xmlns="http://www.w3.org/2000/svg" xml:space="preserve" id="圖層_1" x="0" y="0" preserveAspectRatio="xMidYMid" style="shape-rendering:auto;background:0 0;width:200px;height:200px;margin:0;animation:none;display:block" version="1.1" viewBox="15.5 15.5 69 69"><g class="ldl-scale" style="transform-origin:50px 50px;animation:none;transform:matrix(.8,0,0,.8,0,0)"><g class="ldl-ani"><g class="ldl-layer" style="transform-origin:50px 50px;transform-box:view-box;animation:none;transform:matrix(1.00333,0,0,1.00333,0,0)"><circle cx="50" cy="50" r="38" fill="#f5e6c8" stroke="#333" stroke-miterlimit="10" stroke-width="8" class="ldl-ani" style="stroke-width:8px;fill:#6bff28;stroke:#000;animation:none"/></g><g class="ldl-layer"><g class="ldl-ani"><g class="ldl-layer" style="transform-origin:50px 50px;transform-box:view-box;animation:none;transform:matrix(.935119,0,0,.935119,0,0)"><path fill="#666" d="M54.9 28.4h-8.7c-1 0-1.8.8-1.8 1.8v7.6c0 1 .8 1.8 1.8 1.8h8.7c1 0 1.8-.8 1.8-1.8v-7.6c0-1-.8-1.8-1.8-1.8" class="ldl-ani" style="stroke-width:1px;fill:#000;animation:none"/></g><g class="ldl-layer" style="transform-origin:50px 50px;transform-box:view-box;animation:none;transform:matrix(.91,0,0,.91,0,0)"><path fill="#666" d="M56.7 63V45.4c0-1-.8-1.8-1.8-1.8H42.7c-1 0-1.8.8-1.8 1.8V50c0 1 .8 1.8 1.8 1.8h2.9V63h-2.9c-1 0-1.8.8-1.8 1.8v5.1c0 1 .8 1.8 1.8 1.8h16.8c1 0 1.8-.8 1.8-1.8v-5.1c0-1-.8-1.8-1.8-1.8z" class="ldl-ani" style="stroke-width:1px;fill:#000;animation:none"/></g></g></g></g></g></svg>