<svg xmlns="http://www.w3.org/2000/svg" width="420" height="95" fill="none"><path fill="#000" d="M10 93.152q-4.608 0-6.656-1.28-2.048-1.408-2.56-3.712A29 29 0 0 1 .4 83.424V13.28q0-2.431.384-4.608.512-2.304 2.56-3.584Q5.392 3.68 10.128 3.68q4.864 0 6.784 1.408 2.048 1.408 2.432 3.584.512 2.176.512 4.736v22.144L47.248 6.88q2.56-2.56 4.608-3.584 2.175-1.024 4.352-.384 2.304.64 4.864 3.2 4.352 3.968 4.352 7.04.127 2.944-3.584 6.656L32.4 48.48l29.696 28.416q3.968 3.968 3.712 7.168-.128 3.072-4.48 6.656-3.072 2.56-5.376 3.2-2.176.768-4.096-.384-1.92-1.024-4.352-3.712l-27.648-28.8v22.528q0 2.432-.512 4.736-.384 2.175-2.432 3.584-2.048 1.28-6.912 1.28m111.847-.128q-4.736 0-7.04-1.664-2.176-1.665-2.176-4.096l1.28-2.176q-.768 1.28-2.944 3.2-2.176 1.792-5.632 3.328-3.456 1.408-8.576 1.408-5.888 0-11.264-2.56-5.248-2.56-9.344-7.04a37.4 37.4 0 0 1-6.528-10.368q-2.304-5.76-2.304-12.16 0-6.272 2.304-11.904 2.431-5.76 6.528-10.112 4.224-4.48 9.472-7.04t11.136-2.56q4.735 0 8.064 1.408 3.328 1.28 5.504 3.072 2.304 1.792 3.456 3.456l-1.024-1.792q-.128-3.072 2.048-4.608 2.304-1.665 7.168-1.664 4.608 0 6.528 1.408 2.048 1.408 2.432 3.712.512 2.304.512 4.864v44.16q0 2.432-.512 4.736-.384 2.304-2.432 3.712-1.92 1.28-6.656 1.28M99.575 73.952q3.328 0 6.016-1.664a12.23 12.23 0 0 0 4.352-4.736q1.664-2.944 1.664-6.528 0-3.712-1.664-6.528-1.664-2.945-4.48-4.608a11.2 11.2 0 0 0-6.144-1.792q-3.712 0-6.656 1.792-2.815 1.792-4.608 4.736-1.665 2.944-1.664 6.656 0 3.456 1.664 6.4 1.792 2.815 4.736 4.608 3.073 1.665 6.784 1.664m51.773 19.072q-4.736 0-6.784-1.28-1.92-1.408-2.432-3.584a29 29 0 0 1-.384-4.736V38.368q0-2.432.512-4.48.512-2.176 2.432-3.456 2.048-1.28 6.784-1.28 4.096 0 6.016 1.152 1.92 1.024 2.432 2.56.64 1.536.64 2.944 0 1.28.256 1.792l-.768 2.432q.256-1.92 1.92-3.84 1.792-2.048 4.352-3.584a23.9 23.9 0 0 1 5.632-2.56q3.072-.896 6.016-.896 6.144 0 10.88 2.304 4.864 2.176 8.192 6.4t4.992 9.984q1.792 5.632 1.792 12.416v23.296q0 2.432-.512 4.736-.384 2.176-2.432 3.456-1.92 1.28-6.656 1.28-4.865 0-6.912-1.28-1.92-1.408-2.432-3.584a21.8 21.8 0 0 1-.512-4.736V60.256q0-3.84-1.28-6.528t-3.84-4.096q-2.56-1.536-6.272-1.536t-6.4 1.536a11.16 11.16 0 0 0-4.224 4.224q-1.408 2.688-1.408 6.4v23.296q0 2.432-.512 4.736-.384 2.176-2.432 3.456-1.92 1.28-6.656 1.28m96.829 0q-6.272 0-11.136-2.56-4.736-2.688-7.936-7.168-3.072-4.48-4.736-10.24-1.536-5.76-1.408-12.288 0-6.272 1.664-12.032t4.736-10.112q3.2-4.352 7.808-6.784 4.736-2.56 11.008-2.56 5.632 0 10.88 2.56 5.376 2.56 9.472 7.04 4.096 4.352 6.4 10.112 2.432 5.633 2.432 11.904 0 6.528-2.432 12.416-2.304 5.76-6.4 10.24t-9.344 7.04a25.9 25.9 0 0 1-11.008 2.432m-2.688-18.944q3.584 0 6.4-1.664a13.25 13.25 0 0 0 4.48-4.736q1.792-2.945 1.792-6.528 0-3.712-1.664-6.528-1.664-2.944-4.48-4.608-2.816-1.665-6.4-1.664-3.456 0-6.4 1.664-2.816 1.664-4.48 4.608-1.536 2.816-1.536 6.528 0 3.584 1.664 6.528a13.25 13.25 0 0 0 4.48 4.736q2.816 1.665 6.144 1.664m-22.272 19.072q-4.608 0-6.656-1.408t-2.56-3.584a29 29 0 0 1-.384-4.736v-73.6q0-2.688.512-4.864t2.432-3.456q2.048-1.408 6.784-1.408 4.608 0 6.528 1.408t2.304 3.712q.384 2.176.256 4.608v77.568q-.64 2.944-2.688 4.352t-6.528 1.408m114.38-.128q-4.736 0-7.04-1.664-2.176-1.665-2.176-4.096l1.28-2.176q-.768 1.28-2.944 3.2-2.176 1.792-5.632 3.328-3.456 1.408-8.576 1.408-5.888 0-11.264-2.56-5.248-2.56-9.344-7.04a37.4 37.4 0 0 1-6.528-10.368q-2.304-5.76-2.304-12.16 0-6.272 2.304-11.904 2.431-5.76 6.528-10.112 4.224-4.48 9.472-7.04t11.136-2.56q4.736 0 8.064 1.408 3.328 1.28 5.504 3.072 2.304 1.792 3.456 3.456l-1.024-1.792q-.128-3.072 2.048-4.608 2.304-1.665 7.168-1.664 4.608 0 6.528 1.408 2.048 1.408 2.432 3.712.512 2.304.512 4.864v44.16q0 2.432-.512 4.736-.384 2.304-2.432 3.712-1.92 1.28-6.656 1.28m-22.272-19.072q3.328 0 6.016-1.664a12.23 12.23 0 0 0 4.352-4.736q1.664-2.944 1.664-6.528 0-3.712-1.664-6.528-1.664-2.945-4.48-4.608a11.2 11.2 0 0 0-6.144-1.792q-3.712 0-6.656 1.792-2.816 1.792-4.608 4.736-1.664 2.944-1.664 6.656 0 3.456 1.664 6.4 1.792 2.815 4.736 4.608 3.072 1.665 6.784 1.664m51.773 19.072q-4.736 0-6.784-1.28-1.92-1.408-2.432-3.584a29 29 0 0 1-.384-4.736V38.368q0-2.432.512-4.48.512-2.176 2.432-3.456 2.048-1.28 6.784-1.28 4.096 0 6.016 1.152 1.92 1.024 2.432 2.56.64 1.536.64 2.944 0 1.28.256 1.792l-.768 2.432q.256-1.92 1.92-3.84 1.792-2.048 4.352-3.584a23.9 23.9 0 0 1 5.632-2.56q3.072-.896 6.016-.896 6.144 0 10.88 2.304 4.864 2.176 8.192 6.4t4.992 9.984q1.792 5.632 1.792 12.416v23.296q0 2.432-.512 4.736-.384 2.176-2.432 3.456-1.92 1.28-6.656 1.28-4.865 0-6.912-1.28-1.92-1.408-2.432-3.584a21.8 21.8 0 0 1-.512-4.736V60.256q0-3.84-1.28-6.528t-3.84-4.096q-2.56-1.536-6.272-1.536t-6.4 1.536a11.16 11.16 0 0 0-4.224 4.224q-1.408 2.688-1.408 6.4v23.296q0 2.432-.512 4.736-.384 2.176-2.432 3.456-1.92 1.28-6.656 1.28"/></svg>