<svg xmlns="http://www.w3.org/2000/svg" xml:space="preserve" id="Layer_1" x="0" y="0" preserveAspectRatio="xMidYMid" style="shape-rendering:auto;background:0 0;width:200px;height:200px;margin:0;animation:none;display:block" version="1.1" viewBox="26.41 21.72 56.48 59.3"><g class="ldl-scale" style="transform-origin:50px 50px;animation:none;transform:matrix(.8,0,0,.8,0,0)"><g class="ldl-ani"><g class="ldl-layer"><g class="ldl-ani"><g class="ldl-layer" style="transform-origin:50px 50px;transform-box:view-box;animation:none;transform:matrix(1.02425,0,0,1.02425,0,0)"><path fill="none" stroke="#000" stroke-linecap="round" stroke-linejoin="round" stroke-miterlimit="10" stroke-width="3.5" d="M58.5 47H88" class="ldl-ani" style="stroke-width:3.5px;fill:none;stroke:#000;animation:none"/></g><g class="ldl-layer" style="transform-origin:50px 50px;transform-box:view-box;animation:none;transform:matrix(.99,0,0,.99,0,0)"><path fill="none" stroke="#000" stroke-linecap="round" stroke-linejoin="round" stroke-miterlimit="10" stroke-width="3.5" d="M72.1 63 88 47" class="ldl-ani" style="stroke-width:3.5px;fill:none;stroke:#000;animation:none"/></g><g class="ldl-layer" style="transform-origin:50px 50px;transform-box:view-box;animation:none;transform:matrix(.949676,0,0,.949676,0,0)"><path fill="none" stroke="#000" stroke-linecap="round" stroke-linejoin="round" stroke-miterlimit="10" stroke-width="3.5" d="M72.1 31 88 47" class="ldl-ani" style="stroke-width:3.5px;fill:none;stroke:#000;animation:none"/></g></g></g><g class="ldl-layer"><g class="ldl-ani"><g class="ldl-layer" style="transform-origin:50px 50px;transform-box:view-box;animation:none;transform:matrix(.916203,0,0,.916203,0,0)"><path fill="none" stroke="#000" stroke-linecap="round" stroke-linejoin="round" stroke-miterlimit="10" stroke-width="3.5" d="M74.4 20.7v-1.9c0-2.8-2.2-5-5-5h-44c-2.8 0-5 2.2-5 5v56.4c0 2.8 2.2 5 5 5h44c2.8 0 5-2.2 5-5v-1.9" class="ldl-ani" style="stroke-width:3.5px;fill:none;stroke:#000;animation:none"/></g><g class="ldl-layer" style="transform-origin:50px 50px;transform-box:view-box;animation:none;transform:matrix(.91,0,0,.91,0,0)"><path fill="#B3B3B3" stroke="#000" stroke-linecap="round" stroke-linejoin="round" stroke-miterlimit="10" stroke-width="3.5" d="m50 90.2-26.6-8.9c-2-.7-3.4-2.6-3.4-4.7V20.7c0-3.4 3.3-5.8 6.6-4.7L50 23.8z" class="ldl-ani" style="stroke-width:3.5px;fill:red;stroke:#000;animation:none"/></g></g></g></g></g></svg>