<svg xml:space="preserve" viewBox="0 0 100 100" y="0" x="0" xmlns="http://www.w3.org/2000/svg" id="Layer_1" version="1.1" preserveAspectRatio="xMidYMid" width="200" height="200" xmlns:xlink="http://www.w3.org/1999/xlink" style="margin-top:0px;margin-right:0px;margin-bottom:0px;margin-left:0px;display:block;shape-rendering:auto;background-position-x:0%;background-position-y:0%;background-size:auto;background-origin:padding-box;background-clip:border-box;background:scroll rgba(0, 0, 0, 0) none  repeat;width:200px;height:200px;;animation:none"><g class="ldl-scale" style="transform-origin:50px 50px;transform:matrix(0.8, 0, 0, 0.8, 0, 0);;animation:none"><g class="ldl-ani"><g class="ldl-layer"><g class="ldl-ani"><g><g class="ldl-layer"><g class="ldl-ani" style="transform:matrix(1, 0, 0, 1, 0, 0);transform-box:view-box;animation-duration:1s;animation-timing-function:linear;animation-delay:-0.518519s;animation-iteration-count:infinite;animation-direction:normal;animation-fill-mode:forwards;animation-play-state:paused;animation-name:animate;animation-timeline:auto;animation-range-start:normal;animation-range-end:normal;transform-origin:50px 50px;;animation:none"><path fill="#acbd81" d="M54.663 82.657a6.17 6.17 0 0 1-6.163-6.163c0-1.768.764-3.423 2.039-4.573a11.211 11.211 0 0 1-1.863-4.524 17.12 17.12 0 0 1-10.574-3.701 17.11 17.11 0 0 1-8.025 2.006c-9.476 0-17.185-7.709-17.185-17.185 0-1.467.186-2.921.553-4.333A17.116 17.116 0 0 1 9.5 33.256c0-9.477 7.709-17.186 17.185-17.186 1.167 0 2.355.129 3.542.383a17.143 17.143 0 0 1 12.567-5.47 17.19 17.19 0 0 1 13.674 6.783 16.968 16.968 0 0 1 9.854 3.191 16.95 16.95 0 0 1 6.994-1.496c9.476 0 17.185 7.709 17.185 17.185 0 4.258-1.551 8.296-4.383 11.453.097.738.144 1.435.144 2.112 0 8.939-6.672 16.203-15.418 17.081a11.21 11.21 0 0 1-10.019 9.38 6.173 6.173 0 0 1-6.162 5.985z" style="stroke-width:1px;fill:rgb(172, 189, 129);;animation:none"></path></g></g>
<g class="ldl-layer"><g class="ldl-ani" style="transform:matrix(1, 0, 0, 1, 0, 0);transform-box:view-box;animation-duration:1s;animation-timing-function:linear;animation-delay:-0.537037s;animation-iteration-count:infinite;animation-direction:normal;animation-fill-mode:forwards;animation-play-state:paused;animation-name:animate;animation-timeline:auto;animation-range-start:normal;animation-range-end:normal;transform-origin:50px 50px;;animation:none"><path fill="#333" d="M42.793 12.484c5.369 0 10.103 2.701 12.931 6.815.212-.008.42-.032.634-.032a15.61 15.61 0 0 1 9.788 3.44 15.599 15.599 0 0 1 7.168-1.745C81.978 20.962 89 27.984 89 36.647c0 4.267-1.709 8.13-4.473 10.958.143.85.234 1.717.234 2.607 0 8.526-6.807 15.448-15.281 15.664-.213 5.196-4.481 9.346-9.73 9.346-.207 0-.409-.018-.612-.031A4.663 4.663 0 1 1 50 76.494a4.662 4.662 0 0 1 2.746-4.248 9.709 9.709 0 0 1-2.728-6.415 15.69 15.69 0 0 1-1.29.065c-4.026 0-7.685-1.53-10.462-4.022a15.589 15.589 0 0 1-8.19 2.327c-8.662 0-15.685-7.022-15.685-15.685 0-1.638.253-3.217.719-4.702C12.565 41.026 11 37.328 11 33.255c0-8.662 7.022-15.685 15.685-15.685 1.41 0 2.769.203 4.068.552 2.877-3.444 7.201-5.638 12.04-5.638m0-3a18.63 18.63 0 0 0-13.078 5.345 18.267 18.267 0 0 0-3.03-.258C16.382 14.571 8 22.953 8 33.255c0 4.095 1.345 8.044 3.816 11.289a18.675 18.675 0 0 0-.425 3.972c0 10.303 8.382 18.685 18.685 18.685 2.721 0 5.403-.601 7.866-1.751a18.62 18.62 0 0 0 9.523 3.403c.277 1.01.676 1.98 1.191 2.89A7.665 7.665 0 0 0 47 76.495c0 4.225 3.438 7.663 7.663 7.663 3.713 0 6.817-2.654 7.516-6.164a12.704 12.704 0 0 0 9.915-9.35c8.965-1.428 15.667-9.088 15.667-18.431 0-.53-.026-1.07-.079-1.628A18.565 18.565 0 0 0 92 36.647c0-10.303-8.382-18.685-18.685-18.685-2.363 0-4.652.436-6.828 1.298a18.749 18.749 0 0 0-9.28-2.974 18.685 18.685 0 0 0-14.414-6.802z" style="stroke-width:1px;fill:rgb(51, 51, 51);;animation:none"></path></g></g></g></g></g>
<g class="ldl-layer"><g class="ldl-ani"><g><g class="ldl-layer"><g class="ldl-ani" style="transform:matrix(1, 0, 0, 1, 0, 0);transform-box:view-box;animation-duration:1s;animation-timing-function:linear;animation-delay:-0.555556s;animation-iteration-count:infinite;animation-direction:normal;animation-fill-mode:forwards;animation-play-state:paused;animation-name:animate;animation-timeline:auto;animation-range-start:normal;animation-range-end:normal;transform-origin:50px 50px;;animation:none"><circle fill="#acbd81" r="4.891" cy="84.125" cx="40.25" style="stroke-width:1px;fill:rgb(172, 189, 129);;animation:none"></circle></g></g>
<g class="ldl-layer"><g class="ldl-ani" style="transform:matrix(1, 0, 0, 1, 0, 0);transform-box:view-box;animation-duration:1s;animation-timing-function:linear;animation-delay:-0.574074s;animation-iteration-count:infinite;animation-direction:normal;animation-fill-mode:forwards;animation-play-state:paused;animation-name:animate;animation-timeline:auto;animation-range-start:normal;animation-range-end:normal;transform-origin:50px 50px;;animation:none"><path fill="#333" d="M40.25 80.734a3.39 3.39 0 1 1 0 6.781 3.39 3.39 0 0 1 0-6.781m0-3c-3.524 0-6.391 2.867-6.391 6.391s2.867 6.391 6.391 6.391 6.391-2.867 6.391-6.391-2.867-6.391-6.391-6.391z" style="stroke-width:1px;fill:rgb(51, 51, 51);;animation:none"></path></g></g></g></g></g>
<g class="ldl-layer"><g class="ldl-ani" style="transform:matrix(1, 0, 0, 1, 0, 0);transform-box:view-box;animation-duration:1s;animation-timing-function:linear;animation-delay:-0.592593s;animation-iteration-count:infinite;animation-direction:normal;animation-fill-mode:forwards;animation-play-state:paused;animation-name:animate;animation-timeline:auto;animation-range-start:normal;animation-range-end:normal;transform-origin:50px 50px;;animation:none"><circle fill="#acbd81" r="15.685" cy="33.255" cx="26.685" style="stroke-width:1px;fill:rgb(172, 189, 129);;animation:none"></circle></g></g>
<g class="ldl-layer"><g class="ldl-ani" style="transform:matrix(1, 0, 0, 1, 0, 0);transform-box:view-box;animation-duration:1s;animation-timing-function:linear;animation-delay:-0.611111s;animation-iteration-count:infinite;animation-direction:normal;animation-fill-mode:forwards;animation-play-state:paused;animation-name:animate;animation-timeline:auto;animation-range-start:normal;animation-range-end:normal;transform-origin:50px 50px;;animation:none"><circle fill="#acbd81" r="15.685" cy="28.168" cx="42.793" style="stroke-width:1px;fill:rgb(172, 189, 129);;animation:none"></circle></g></g>
<g class="ldl-layer"><g class="ldl-ani" style="transform:matrix(1, 0, 0, 1, 0, 0);transform-box:view-box;animation-duration:1s;animation-timing-function:linear;animation-delay:-0.62963s;animation-iteration-count:infinite;animation-direction:normal;animation-fill-mode:forwards;animation-play-state:paused;animation-name:animate;animation-timeline:auto;animation-range-start:normal;animation-range-end:normal;transform-origin:50px 50px;;animation:none"><circle fill="#acbd81" r="15.685" cy="34.951" cx="56.359" style="stroke-width:1px;fill:rgb(172, 189, 129);;animation:none"></circle></g></g>
<g class="ldl-layer"><g class="ldl-ani" style="transform:matrix(1, 0, 0, 1, 0, 0);transform-box:view-box;animation-duration:1s;animation-timing-function:linear;animation-delay:-0.648148s;animation-iteration-count:infinite;animation-direction:normal;animation-fill-mode:forwards;animation-play-state:paused;animation-name:animate;animation-timeline:auto;animation-range-start:normal;animation-range-end:normal;transform-origin:50px 50px;;animation:none"><circle fill="#acbd81" r="15.685" cy="36.647" cx="73.315" style="stroke-width:1px;fill:rgb(172, 189, 129);;animation:none"></circle></g></g>
<g class="ldl-layer"><g class="ldl-ani" style="transform:matrix(1, 0, 0, 1, 0, 0);transform-box:view-box;animation-duration:1s;animation-timing-function:linear;animation-delay:-0.666667s;animation-iteration-count:infinite;animation-direction:normal;animation-fill-mode:forwards;animation-play-state:paused;animation-name:animate;animation-timeline:auto;animation-range-start:normal;animation-range-end:normal;transform-origin:50px 50px;;animation:none"><circle fill="#acbd81" r="15.685" cy="48.516" cx="30.076" style="stroke-width:1px;fill:rgb(172, 189, 129);;animation:none"></circle></g></g>
<g class="ldl-layer"><g class="ldl-ani" style="transform:matrix(1, 0, 0, 1, 0, 0);transform-box:view-box;animation-duration:1s;animation-timing-function:linear;animation-delay:-0.685185s;animation-iteration-count:infinite;animation-direction:normal;animation-fill-mode:forwards;animation-play-state:paused;animation-name:animate;animation-timeline:auto;animation-range-start:normal;animation-range-end:normal;transform-origin:50px 50px;;animation:none"><circle fill="#acbd81" r="15.685" cy="50.212" cx="48.728" style="stroke-width:1px;fill:rgb(172, 189, 129);;animation:none"></circle></g></g>
<g class="ldl-layer"><g class="ldl-ani" style="transform:matrix(1, 0, 0, 1, 0, 0);transform-box:view-box;animation-duration:1s;animation-timing-function:linear;animation-delay:-0.703704s;animation-iteration-count:infinite;animation-direction:normal;animation-fill-mode:forwards;animation-play-state:paused;animation-name:animate;animation-timeline:auto;animation-range-start:normal;animation-range-end:normal;transform-origin:50px 50px;;animation:none"><circle fill="#acbd81" r="15.685" cy="50.212" cx="69.076" style="stroke-width:1px;fill:rgb(172, 189, 129);;animation:none"></circle></g></g>
<g class="ldl-layer"><g class="ldl-ani" style="transform:matrix(1, 0, 0, 1, 0, 0);transform-box:view-box;animation-duration:1s;animation-timing-function:linear;animation-delay:-0.722222s;animation-iteration-count:infinite;animation-direction:normal;animation-fill-mode:forwards;animation-play-state:paused;animation-name:animate;animation-timeline:auto;animation-range-start:normal;animation-range-end:normal;transform-origin:50px 50px;;animation:none"><circle fill="#acbd81" r="9.75" cy="65.473" cx="59.75" style="stroke-width:1px;fill:rgb(172, 189, 129);;animation:none"></circle></g></g>
<g class="ldl-layer"><g class="ldl-ani" style="transform:matrix(1, 0, 0, 1, 0, 0);transform-box:view-box;animation-duration:1s;animation-timing-function:linear;animation-delay:-0.740741s;animation-iteration-count:infinite;animation-direction:normal;animation-fill-mode:forwards;animation-play-state:paused;animation-name:animate;animation-timeline:auto;animation-range-start:normal;animation-range-end:normal;transform-origin:50px 50px;;animation:none"><circle fill="#acbd81" r="4.663" cy="76.495" cx="54.663" style="stroke-width:1px;fill:rgb(172, 189, 129);;animation:none"></circle></g></g>
<g class="ldl-layer"><g class="ldl-ani" style="transform:matrix(1, 0, 0, 1, 0, 0);transform-box:view-box;animation-duration:1s;animation-timing-function:linear;animation-delay:-0.759259s;animation-iteration-count:infinite;animation-direction:normal;animation-fill-mode:forwards;animation-play-state:paused;animation-name:animate;animation-timeline:auto;animation-range-start:normal;animation-range-end:normal;transform-origin:50px 50px;;animation:none"><circle fill="#acbd81" r="3.391" cy="84.125" cx="40.25" style="stroke-width:1px;fill:rgb(172, 189, 129);;animation:none"></circle></g></g>
<g class="ldl-layer"><g class="ldl-ani"><g><g class="ldl-layer"><g class="ldl-ani"><g><g class="ldl-layer"><g class="ldl-ani" style="transform:matrix(1, 0, 0, 1, 0, 0);transform-box:view-box;animation-duration:1s;animation-timing-function:linear;animation-delay:-0.777778s;animation-iteration-count:infinite;animation-direction:normal;animation-fill-mode:forwards;animation-play-state:paused;animation-name:animate;animation-timeline:auto;animation-range-start:normal;animation-range-end:normal;transform-origin:50px 50px;;animation:none"><path stroke-miterlimit="10" fill="none" stroke-width="3.5" stroke="#e0e0e0" d="M29.529 50.088c1.026-5.557 4.271-10.673 8.861-13.969 2.884-2.07 6.278-3.408 9.79-3.917" style="stroke-width:3.5px;stroke:rgb(224, 224, 224);fill:none;;animation:none"></path></g></g>
<g class="ldl-layer"><g class="ldl-ani"><g><g class="ldl-layer"><g class="ldl-ani" style="transform:matrix(1, 0, 0, 1, 0, 0);transform-box:view-box;animation-duration:1s;animation-timing-function:linear;animation-delay:-0.796296s;animation-iteration-count:infinite;animation-direction:normal;animation-fill-mode:forwards;animation-play-state:paused;animation-name:animate;animation-timeline:auto;animation-range-start:normal;animation-range-end:normal;transform-origin:50px 50px;;animation:none"><path d="M47.023 36.755l7.435-4.565-7.671-4.158z" fill="#e0e0e0" style="stroke-width:1px;fill:rgb(224, 224, 224);;animation:none"></path></g></g></g></g></g></g></g></g></g></g></g>
<g class="ldl-layer"><g class="ldl-ani" style="transform:matrix(1, 0, 0, 1, 0, 0);transform-box:view-box;animation-duration:1s;animation-timing-function:linear;animation-delay:-0.814815s;animation-iteration-count:infinite;animation-direction:normal;animation-fill-mode:forwards;animation-play-state:paused;animation-name:animate;animation-timeline:auto;animation-range-start:normal;animation-range-end:normal;transform-origin:50px 50px;;animation:none"><path d="M42 43l7 8" stroke-miterlimit="10" fill="none" stroke-width="3.5" stroke="#e15c64" style="stroke-width:3.5px;stroke:rgb(225, 92, 100);fill:none;;animation:none"></path></g></g>
<g class="ldl-layer"><g class="ldl-ani" style="transform:matrix(1, 0, 0, 1, 0, 0);transform-box:view-box;animation-duration:1s;animation-timing-function:linear;animation-delay:-0.833333s;animation-iteration-count:infinite;animation-direction:normal;animation-fill-mode:forwards;animation-play-state:paused;animation-name:animate;animation-timeline:auto;animation-range-start:normal;animation-range-end:normal;transform-origin:50px 50px;;animation:none"><path d="M40 51l10-9" stroke-miterlimit="10" fill="none" stroke-width="3.5" stroke="#e15c64" style="stroke-width:3.5px;stroke:rgb(225, 92, 100);fill:none;;animation:none"></path></g></g>
<g class="ldl-layer"><g class="ldl-ani" style="transform:matrix(1, 0, 0, 1, 0, 0);transform-box:view-box;animation-duration:1s;animation-timing-function:linear;animation-delay:-0.851852s;animation-iteration-count:infinite;animation-direction:normal;animation-fill-mode:forwards;animation-play-state:paused;animation-name:animate;animation-timeline:auto;animation-range-start:normal;animation-range-end:normal;transform-origin:50px 50px;;animation:none"><circle stroke="#77a4bd" fill="none" stroke-miterlimit="10" stroke-width="3.5" r="5" cy="34" cx="63" style="stroke-width:3.5px;stroke:rgb(119, 164, 189);fill:none;;animation:none"></circle></g></g>
<g class="ldl-layer"><g class="ldl-ani"><g><g class="ldl-layer"><g class="ldl-ani"><g><g class="ldl-layer"><g class="ldl-ani" style="transform:matrix(1, 0, 0, 1, 0, 0);transform-box:view-box;animation-duration:1s;animation-timing-function:linear;animation-delay:-0.87037s;animation-iteration-count:infinite;animation-direction:normal;animation-fill-mode:forwards;animation-play-state:paused;animation-name:animate;animation-timeline:auto;animation-range-start:normal;animation-range-end:normal;transform-origin:50px 50px;;animation:none"><path stroke-miterlimit="10" fill="none" stroke-width="3.5" stroke="#e0e0e0" d="M59.427 56.974c3.929-1.636 7.248-4.471 10.145-7.589.967-1.041 1.907-2.146 2.722-3.321" style="stroke-width:3.5px;stroke:rgb(224, 224, 224);fill:none;;animation:none"></path></g></g>
<g class="ldl-layer"><g class="ldl-ani"><g><g class="ldl-layer"><g class="ldl-ani" style="transform:matrix(1, 0, 0, 1, 0, 0);transform-box:view-box;animation-duration:1s;animation-timing-function:linear;animation-delay:-0.888889s;animation-iteration-count:infinite;animation-direction:normal;animation-fill-mode:forwards;animation-play-state:paused;animation-name:animate;animation-timeline:auto;animation-range-start:normal;animation-range-end:normal;transform-origin:50px 50px;;animation:none"><path d="M75.509 48.989l-.718-8.695-7.172 4.968z" fill="#e0e0e0" style="stroke-width:1px;fill:rgb(224, 224, 224);;animation:none"></path></g></g></g></g></g></g></g></g></g></g></g>
<g class="ldl-layer"><g class="ldl-ani" style="transform:matrix(1, 0, 0, 1, 0, 0);transform-box:view-box;animation-duration:1s;animation-timing-function:linear;animation-delay:-0.907407s;animation-iteration-count:infinite;animation-direction:normal;animation-fill-mode:forwards;animation-play-state:paused;animation-name:animate;animation-timeline:auto;animation-range-start:normal;animation-range-end:normal;transform-origin:50px 50px;;animation:none"><path d="M24 28v11l8-7z" stroke-miterlimit="10" stroke-width="3.5" stroke="#f4e6c8" fill="none" stroke-linejoin="round" style="stroke-width:3.5px;stroke:rgb(244, 230, 200);fill:none;;animation:none"></path></g></g>
<g class="ldl-layer"><g class="ldl-ani" style="transform:matrix(1, 0, 0, 1, 0, 0);transform-box:view-box;animation-duration:1s;animation-timing-function:linear;animation-delay:-0.925926s;animation-iteration-count:infinite;animation-direction:normal;animation-fill-mode:forwards;animation-play-state:paused;animation-name:animate;animation-timeline:auto;animation-range-start:normal;animation-range-end:normal;transform-origin:50px 50px;;animation:none"><path opacity=".2" d="M89 36.647c0-7.759-5.64-14.186-13.04-15.445.014.345.04.686.04 1.036 0 5.516-1.709 10.511-4.473 14.166.143 1.099.234 2.22.234 3.37 0 11.023-6.807 19.971-15.281 20.251-.144 4.538-2.142 8.452-5.039 10.518.376.616.81 1.192 1.31 1.708A4.655 4.655 0 0 0 50 76.495a4.663 4.663 0 0 0 9.326 0c0-.456-.086-.887-.208-1.304.21.013.418.032.632.032 5.249 0 9.516-4.15 9.73-9.346 8.474-.216 15.281-7.138 15.281-15.664 0-.89-.092-1.757-.234-2.607A15.632 15.632 0 0 0 89 36.647z" style="stroke-width:1px;opacity:0.2;;animation:none"></path></g></g>
<g class="ldl-layer"><g class="ldl-ani" style="transform:matrix(1, 0, 0, 1, 0, 0);transform-box:view-box;animation-duration:1s;animation-timing-function:linear;animation-delay:-0.944444s;animation-iteration-count:infinite;animation-direction:normal;animation-fill-mode:forwards;animation-play-state:paused;animation-name:animate;animation-timeline:auto;animation-range-start:normal;animation-range-end:normal;transform-origin:50px 50px;;animation:none"><path stroke-miterlimit="10" stroke-width="3.5" stroke-linecap="round" stroke="#fff" fill="#acbd81" d="M17.134 25.037a10.499 10.499 0 0 1 7.139-3.879" style="stroke-width:3.5px;stroke:rgb(255, 255, 255);fill:rgb(172, 189, 129);;animation:none"></path></g></g>
<g class="ldl-layer"><g class="ldl-ani" style="transform:matrix(1, 0, 0, 1, 0, 0);transform-box:view-box;animation-duration:1s;animation-timing-function:linear;animation-delay:-0.962963s;animation-iteration-count:infinite;animation-direction:normal;animation-fill-mode:forwards;animation-play-state:paused;animation-name:animate;animation-timeline:auto;animation-range-start:normal;animation-range-end:normal;transform-origin:50px 50px;;animation:none"><path stroke-miterlimit="10" stroke-width="3.5" stroke-linecap="round" stroke="#fff" fill="#acbd81" d="M14.998 29.71c.044-.241.096-.479.156-.713" style="stroke-width:3.5px;stroke:rgb(255, 255, 255);fill:rgb(172, 189, 129);;animation:none"></path></g></g>
<g class="ldl-layer"><g class="ldl-ani" style="transform:matrix(1, 0, 0, 1, 0, 0);transform-box:view-box;animation-duration:1s;animation-timing-function:linear;animation-delay:-0.981481s;animation-iteration-count:infinite;animation-direction:normal;animation-fill-mode:forwards;animation-play-state:paused;animation-name:animate;animation-timeline:auto;animation-range-start:normal;animation-range-end:normal;transform-origin:50px 50px;;animation:none"><path stroke-miterlimit="10" stroke-width="3.5" stroke-linecap="round" stroke="#fff" fill="#acbd81" d="M40.334 15.782c.802-.124 1.628-.17 2.47-.133 1.169.052 2.292.262 3.352.61" style="stroke-width:3.5px;stroke:rgb(255, 255, 255);fill:rgb(172, 189, 129);;animation:none"></path></g></g>
<g class="ldl-layer"><g class="ldl-ani" style="transform:matrix(1, 0, 0, 1, 0, 0);transform-box:view-box;animation-duration:1s;animation-timing-function:linear;animation-delay:-1s;animation-iteration-count:infinite;animation-direction:normal;animation-fill-mode:forwards;animation-play-state:paused;animation-name:animate;animation-timeline:auto;animation-range-start:normal;animation-range-end:normal;transform-origin:50px 50px;;animation:none"><path stroke-miterlimit="10" stroke-width="3.5" stroke-linecap="round" stroke="#fff" fill="#acbd81" d="M35.336 18.136c.135-.101.272-.199.412-.294" style="stroke-width:3.5px;stroke:rgb(255, 255, 255);fill:rgb(172, 189, 129);;animation:none"></path></g></g>
<metadata xmlns:d="https://loading.io/stock/"></metadata></g></g>
<STYLE type="text/css">@keyframes animate { 0.00% {animation-timing-function: cubic-bezier(0.33,0.00,0.67,0.00);transform: translate(0.00px,0.00px) rotate(0.00deg) scale(1.00, 1.00) skew(0deg, 0.00deg) ;opacity: 1.00;}50.00% {animation-timing-function: cubic-bezier(0.33,0.00,0.67,0.00);transform: translate(0.00px,0.00px) rotate(0.00deg) ;}100.00% {animation-timing-function: cubic-bezier(0.33,0.00,0.67,0.00);transform: translate(0.00px,0.00px) rotate(0.00deg) ;} }</STYLE><!-- [ldio] generated by https://loading.io --></svg>