<svg xmlns="http://www.w3.org/2000/svg" xml:space="preserve" id="Layer_1" width="200" height="200" x="0" y="0" preserveAspectRatio="xMidYMid" style="shape-rendering:auto;background:0 0;width:200px;height:200px;margin:0;animation:none;display:block" version="1.1" viewBox="0 0 100 100"><g class="ldl-scale" style="transform-origin:50px 50px;animation:none;transform:matrix(.8,0,0,.8,0,0)"><g class="ldl-ani"><g class="ldl-layer"><g class="ldl-ani"><g class="ldl-layer" style="transform-box:view-box;transform-origin:50px 50px;animation:none;transform:matrix(1,0,0,1,0,0)"><path fill="#acbd81" d="M54.663 82.657a6.17 6.17 0 0 1-6.163-6.163c0-1.768.764-3.423 2.039-4.573a11.2 11.2 0 0 1-1.863-4.524 17.12 17.12 0 0 1-10.574-3.701 17.1 17.1 0 0 1-8.025 2.006c-9.476 0-17.185-7.709-17.185-17.185 0-1.467.186-2.921.553-4.333A17.12 17.12 0 0 1 9.5 33.256c0-9.477 7.709-17.186 17.185-17.186 1.167 0 2.355.129 3.542.383a17.14 17.14 0 0 1 12.567-5.47 17.19 17.19 0 0 1 13.674 6.783 16.97 16.97 0 0 1 9.854 3.191 16.95 16.95 0 0 1 6.994-1.496c9.476 0 17.185 7.709 17.185 17.185 0 4.258-1.551 8.296-4.383 11.453.097.738.144 1.435.144 2.112 0 8.939-6.672 16.203-15.418 17.081a11.21 11.21 0 0 1-10.019 9.38 6.173 6.173 0 0 1-6.162 5.985" class="ldl-ani" style="stroke-width:1px;fill:#acbd81;animation:none"/></g><g class="ldl-layer" style="transform-box:view-box;transform-origin:50px 50px;animation:none;transform:matrix(1,0,0,1,0,0)"><path fill="#333" d="M42.793 12.484c5.369 0 10.103 2.701 12.931 6.815.212-.008.42-.032.634-.032a15.6 15.6 0 0 1 9.788 3.44 15.6 15.6 0 0 1 7.168-1.745C81.978 20.962 89 27.984 89 36.647c0 4.267-1.709 8.13-4.473 10.958.143.85.234 1.717.234 2.607 0 8.526-6.807 15.448-15.281 15.664-.213 5.196-4.481 9.346-9.73 9.346-.207 0-.409-.018-.612-.031A4.663 4.663 0 1 1 50 76.494a4.66 4.66 0 0 1 2.746-4.248 9.7 9.7 0 0 1-2.728-6.415 16 16 0 0 1-1.29.065c-4.026 0-7.685-1.53-10.462-4.022a15.6 15.6 0 0 1-8.19 2.327c-8.662 0-15.685-7.022-15.685-15.685 0-1.638.253-3.217.719-4.702C12.565 41.026 11 37.328 11 33.255c0-8.662 7.022-15.685 15.685-15.685 1.41 0 2.769.203 4.068.552 2.877-3.444 7.201-5.638 12.04-5.638m0-3a18.63 18.63 0 0 0-13.078 5.345 18 18 0 0 0-3.03-.258C16.382 14.571 8 22.953 8 33.255c0 4.095 1.345 8.044 3.816 11.289a18.7 18.7 0 0 0-.425 3.972c0 10.303 8.382 18.685 18.685 18.685 2.721 0 5.403-.601 7.866-1.751a18.6 18.6 0 0 0 9.523 3.403c.277 1.01.676 1.98 1.191 2.89A7.67 7.67 0 0 0 47 76.495c0 4.225 3.438 7.663 7.663 7.663 3.713 0 6.817-2.654 7.516-6.164a12.7 12.7 0 0 0 9.915-9.35c8.965-1.428 15.667-9.088 15.667-18.431q0-.793-.079-1.628A18.57 18.57 0 0 0 92 36.647c0-10.303-8.382-18.685-18.685-18.685-2.363 0-4.652.436-6.828 1.298a18.75 18.75 0 0 0-9.28-2.974 18.68 18.68 0 0 0-14.414-6.802" class="ldl-ani" style="stroke-width:1px;fill:#333;animation:none"/></g></g></g><g class="ldl-layer"><g class="ldl-ani"><g class="ldl-layer" style="transform-box:view-box;transform-origin:50px 50px;animation:none;transform:matrix(1,0,0,1,0,0)"><circle cx="40.25" cy="84.125" r="4.891" fill="#acbd81" class="ldl-ani" style="stroke-width:1px;fill:#acbd81;animation:none"/></g><g class="ldl-layer" style="transform-box:view-box;transform-origin:50px 50px;animation:none;transform:matrix(1,0,0,1,0,0)"><path fill="#333" d="M40.25 80.734a3.39 3.39 0 1 1 0 6.781 3.39 3.39 0 0 1 0-6.781m0-3c-3.524 0-6.391 2.867-6.391 6.391s2.867 6.391 6.391 6.391 6.391-2.867 6.391-6.391-2.867-6.391-6.391-6.391" class="ldl-ani" style="stroke-width:1px;fill:#333;animation:none"/></g></g></g><g class="ldl-layer" style="transform-box:view-box;transform-origin:50px 50px;animation:none;transform:matrix(1,0,0,1,0,0)"><circle cx="26.685" cy="33.255" r="15.685" fill="#acbd81" class="ldl-ani" style="stroke-width:1px;fill:#acbd81;animation:none"/></g><g class="ldl-layer" style="transform-box:view-box;transform-origin:50px 50px;animation:none;transform:matrix(1,0,0,1,0,0)"><circle cx="42.793" cy="28.168" r="15.685" fill="#acbd81" class="ldl-ani" style="stroke-width:1px;fill:#acbd81;animation:none"/></g><g class="ldl-layer" style="transform-box:view-box;transform-origin:50px 50px;animation:none;transform:matrix(1,0,0,1,0,0)"><circle cx="56.359" cy="34.951" r="15.685" fill="#acbd81" class="ldl-ani" style="stroke-width:1px;fill:#acbd81;animation:none"/></g><g class="ldl-layer" style="transform-box:view-box;transform-origin:50px 50px;animation:none;transform:matrix(1,0,0,1,0,0)"><circle cx="73.315" cy="36.647" r="15.685" fill="#acbd81" class="ldl-ani" style="stroke-width:1px;fill:#acbd81;animation:none"/></g><g class="ldl-layer" style="transform-box:view-box;transform-origin:50px 50px;animation:none;transform:matrix(1,0,0,1,0,0)"><circle cx="30.076" cy="48.516" r="15.685" fill="#acbd81" class="ldl-ani" style="stroke-width:1px;fill:#acbd81;animation:none"/></g><g class="ldl-layer" style="transform-box:view-box;transform-origin:50px 50px;animation:none;transform:matrix(1,0,0,1,0,0)"><circle cx="48.728" cy="50.212" r="15.685" fill="#acbd81" class="ldl-ani" style="stroke-width:1px;fill:#acbd81;animation:none"/></g><g class="ldl-layer" style="transform-box:view-box;transform-origin:50px 50px;animation:none;transform:matrix(1,0,0,1,0,0)"><circle cx="69.076" cy="50.212" r="15.685" fill="#acbd81" class="ldl-ani" style="stroke-width:1px;fill:#acbd81;animation:none"/></g><g class="ldl-layer" style="transform-box:view-box;transform-origin:50px 50px;animation:none;transform:matrix(1,0,0,1,0,0)"><circle cx="59.75" cy="65.473" r="9.75" fill="#acbd81" class="ldl-ani" style="stroke-width:1px;fill:#acbd81;animation:none"/></g><g class="ldl-layer" style="transform-box:view-box;transform-origin:50px 50px;animation:none;transform:matrix(1,0,0,1,0,0)"><circle cx="54.663" cy="76.495" r="4.663" fill="#acbd81" class="ldl-ani" style="stroke-width:1px;fill:#acbd81;animation:none"/></g><g class="ldl-layer" style="transform-box:view-box;transform-origin:50px 50px;animation:none;transform:matrix(1,0,0,1,0,0)"><circle cx="40.25" cy="84.125" r="3.391" fill="#acbd81" class="ldl-ani" style="stroke-width:1px;fill:#acbd81;animation:none"/></g><g class="ldl-layer"><g class="ldl-ani"><g class="ldl-layer"><g class="ldl-ani"><g class="ldl-layer" style="transform-box:view-box;transform-origin:50px 50px;animation:none;transform:matrix(1,0,0,1,0,0)"><path fill="none" stroke="#e0e0e0" stroke-miterlimit="10" stroke-width="3.5" d="M29.529 50.088c1.026-5.557 4.271-10.673 8.861-13.969 2.884-2.07 6.278-3.408 9.79-3.917" class="ldl-ani" style="stroke-width:3.5px;stroke:#e0e0e0;fill:none;animation:none"/></g><g class="ldl-layer"><g class="ldl-ani"><g class="ldl-layer" style="transform-box:view-box;transform-origin:50px 50px;animation:none;transform:matrix(1,0,0,1,0,0)"><path fill="#e0e0e0" d="m47.023 36.755 7.435-4.565-7.671-4.158z" class="ldl-ani" style="stroke-width:1px;fill:#e0e0e0;animation:none"/></g></g></g></g></g></g></g><g class="ldl-layer" style="transform-box:view-box;transform-origin:50px 50px;animation:none;transform:matrix(1,0,0,1,0,0)"><path fill="none" stroke="#e15c64" stroke-miterlimit="10" stroke-width="3.5" d="m42 43 7 8" class="ldl-ani" style="stroke-width:3.5px;stroke:#e15c64;fill:none;animation:none"/></g><g class="ldl-layer" style="transform-box:view-box;transform-origin:50px 50px;animation:none;transform:matrix(1,0,0,1,0,0)"><path fill="none" stroke="#e15c64" stroke-miterlimit="10" stroke-width="3.5" d="m40 51 10-9" class="ldl-ani" style="stroke-width:3.5px;stroke:#e15c64;fill:none;animation:none"/></g><g class="ldl-layer" style="transform-box:view-box;transform-origin:50px 50px;animation:none;transform:matrix(1,0,0,1,0,0)"><circle cx="63" cy="34" r="5" fill="none" stroke="#77a4bd" stroke-miterlimit="10" stroke-width="3.5" class="ldl-ani" style="stroke-width:3.5px;stroke:#77a4bd;fill:none;animation:none"/></g><g class="ldl-layer"><g class="ldl-ani"><g class="ldl-layer"><g class="ldl-ani"><g class="ldl-layer" style="transform-box:view-box;transform-origin:50px 50px;animation:none;transform:matrix(1,0,0,1,0,0)"><path fill="none" stroke="#e0e0e0" stroke-miterlimit="10" stroke-width="3.5" d="M59.427 56.974c3.929-1.636 7.248-4.471 10.145-7.589.967-1.041 1.907-2.146 2.722-3.321" class="ldl-ani" style="stroke-width:3.5px;stroke:#e0e0e0;fill:none;animation:none"/></g><g class="ldl-layer"><g class="ldl-ani"><g class="ldl-layer" style="transform-box:view-box;transform-origin:50px 50px;animation:none;transform:matrix(1,0,0,1,0,0)"><path fill="#e0e0e0" d="m75.509 48.989-.718-8.695-7.172 4.968z" class="ldl-ani" style="stroke-width:1px;fill:#e0e0e0;animation:none"/></g></g></g></g></g></g></g><g class="ldl-layer" style="transform-box:view-box;transform-origin:50px 50px;animation:none;transform:matrix(1,0,0,1,0,0)"><path fill="none" stroke="#f4e6c8" stroke-linejoin="round" stroke-miterlimit="10" stroke-width="3.5" d="M24 28v11l8-7z" class="ldl-ani" style="stroke-width:3.5px;stroke:#f4e6c8;fill:none;animation:none"/></g><g class="ldl-layer" style="transform-box:view-box;transform-origin:50px 50px;animation:none;transform:matrix(1,0,0,1,0,0)"><path d="M89 36.647c0-7.759-5.64-14.186-13.04-15.445.014.345.04.686.04 1.036 0 5.516-1.709 10.511-4.473 14.166.143 1.099.234 2.22.234 3.37 0 11.023-6.807 19.971-15.281 20.251-.144 4.538-2.142 8.452-5.039 10.518.376.616.81 1.192 1.31 1.708A4.66 4.66 0 0 0 50 76.495a4.663 4.663 0 0 0 9.326 0c0-.456-.086-.887-.208-1.304.21.013.418.032.632.032 5.249 0 9.516-4.15 9.73-9.346 8.474-.216 15.281-7.138 15.281-15.664 0-.89-.092-1.757-.234-2.607A15.63 15.63 0 0 0 89 36.647" class="ldl-ani" opacity=".2" style="stroke-width:1px;opacity:.2;animation:none"/></g><g class="ldl-layer" style="transform-box:view-box;transform-origin:50px 50px;animation:none;transform:matrix(1,0,0,1,0,0)"><path fill="#acbd81" stroke="#fff" stroke-linecap="round" stroke-miterlimit="10" stroke-width="3.5" d="M17.134 25.037a10.5 10.5 0 0 1 7.139-3.879" class="ldl-ani" style="stroke-width:3.5px;stroke:#fff;fill:#acbd81;animation:none"/></g><g class="ldl-layer" style="transform-box:view-box;transform-origin:50px 50px;animation:none;transform:matrix(1,0,0,1,0,0)"><path fill="#acbd81" stroke="#fff" stroke-linecap="round" stroke-miterlimit="10" stroke-width="3.5" d="M14.998 29.71q.066-.362.156-.713" class="ldl-ani" style="stroke-width:3.5px;stroke:#fff;fill:#acbd81;animation:none"/></g><g class="ldl-layer" style="transform-box:view-box;transform-origin:50px 50px;animation:none;transform:matrix(1,0,0,1,0,0)"><path fill="#acbd81" stroke="#fff" stroke-linecap="round" stroke-miterlimit="10" stroke-width="3.5" d="M40.334 15.782q1.205-.187 2.47-.133c1.169.052 2.292.262 3.352.61" class="ldl-ani" style="stroke-width:3.5px;stroke:#fff;fill:#acbd81;animation:none"/></g><g class="ldl-layer" style="transform-box:view-box;transform-origin:50px 50px;animation:none;transform:matrix(1,0,0,1,0,0)"><path fill="#acbd81" stroke="#fff" stroke-linecap="round" stroke-miterlimit="10" stroke-width="3.5" d="M35.336 18.136q.202-.151.412-.294" class="ldl-ani" style="stroke-width:3.5px;stroke:#fff;fill:#acbd81;animation:none"/></g></g></g></svg>