<svg xmlns="http://www.w3.org/2000/svg" xml:space="preserve" id="圖層_1" x="0" y="0" preserveAspectRatio="xMidYMid" style="shape-rendering:auto;background:0 0;width:200px;height:200px;margin:0;animation:none;display:block" version="1.1" viewBox="13.79 13.48 69.5 69.81"><g class="ldl-scale" style="transform-origin:50px 50px;animation:none;transform:matrix(.8,0,0,.8,0,0)"><g class="ldl-ani"><g class="ldl-layer" style="transform-origin:50px 50px;transform-box:view-box;animation:none;transform:matrix(1.03,0,0,1.03,0,0)"><path fill="#a0c8d7" stroke="#333" stroke-miterlimit="10" stroke-width="3" d="M63.333 29.507H49.667A7.167 7.167 0 0 1 42.5 22.34v-7.67a7.167 7.167 0 0 1 7.167-7.167h13.666A7.167 7.167 0 0 1 70.5 14.67v7.67a7.167 7.167 0 0 1-7.167 7.167z" class="ldl-ani" style="stroke-width:3px;fill:#5bbfe4;stroke:#000;animation:none"/></g><g class="ldl-layer" style="transform-origin:50px 50px;transform-box:view-box;animation:none;transform:matrix(1.0209,0,0,1.0209,0,0)"><path fill="#849b87" stroke="#333" stroke-miterlimit="10" stroke-width="3" d="m54.017 24.712-.022-.056c-.954-2.411-3.16-4.101-5.731-4.104H13.743c-3.447 0-6.242 3.033-6.242 6.773v5.736h.063v14.56c0 1.831.623 3.527 1.662 4.778q.04.049.082.098.026.029.054.058c1.127 1.206 2.673 1.952 4.381 1.952h34.516c2.735 0 5.053-1.911 5.897-4.568.029-.095.062-.188.087-.285l.014-.06a8 8 0 0 0 .244-1.971V27.454a8 8 0 0 0-.391-2.47c-.032-.091-.058-.183-.093-.272z" class="ldl-ani" style="stroke-width:3px;fill:#68c574;stroke:#000;animation:none"/></g><g class="ldl-layer" style="transform-origin:50px 50px;transform-box:view-box;animation:none;transform:matrix(1.00333,0,0,1.00333,0,0)"><circle cx="19.75" cy="37.529" r="3" fill="#f5e6c8" class="ldl-ani" style="stroke-width:1px;fill:#000;animation:none"/></g><g class="ldl-layer" style="transform-origin:50px 50px;transform-box:view-box;animation:none;transform:matrix(.979453,0,0,.979453,0,0)"><circle cx="31" cy="37.529" r="3" fill="#f5e6c8" class="ldl-ani" style="stroke-width:1px;fill:#000;animation:none"/></g><g class="ldl-layer" style="transform-origin:50px 50px;transform-box:view-box;animation:none;transform:matrix(.96082,0,0,.96082,0,0)"><circle cx="42.25" cy="37.529" r="3" fill="#f5e6c8" class="ldl-ani" style="stroke-width:1px;fill:#000;animation:none"/></g><g class="ldl-layer" style="transform-origin:50px 50px;transform-box:view-box;animation:none;transform:matrix(.935119,0,0,.935119,0,0)"><path fill="#abbd81" stroke="#333" stroke-miterlimit="10" stroke-width="3" d="M92.025 45.467c-.037-.102-.07-.205-.112-.305q-.014-.031-.027-.062c-1.087-2.668-3.532-4.593-6.588-4.593H43.004a7.58 7.58 0 0 0-7.58 7.58v22.84c0 2.026.8 3.863 2.095 5.223q.05.055.099.109l.065.064c1.289 1.341 3.06 2.184 5.085 2.184h22.966c1.778 7 6.766 11.848 13.766 13.991V78.507h5.8c3.256 0 5.818-2.174 6.782-5.112.035-.107.075-.211.105-.319q.01-.033.017-.068a7.6 7.6 0 0 0 .296-2.081v-22.84c0-.923-.173-1.803-.475-2.62z" class="ldl-ani" style="stroke-width:3px;fill:#b1e142;stroke:#000;animation:none"/></g><g class="ldl-layer" style="transform-origin:50px 50px;transform-box:view-box;animation:none;transform:matrix(.918326,0,0,.918326,0,0)"><circle cx="47.938" cy="60" r="4" fill="#f5e6c8" class="ldl-ani" style="stroke-width:1px;fill:#000;animation:none"/></g><g class="ldl-layer" style="transform-origin:50px 50px;transform-box:view-box;animation:none;transform:matrix(.91,0,0,.91,0,0)"><circle cx="62.938" cy="60" r="4" fill="#f5e6c8" class="ldl-ani" style="stroke-width:1px;fill:#000;animation:none"/></g><g class="ldl-layer" style="transform-origin:50px 50px;transform-box:view-box;animation:none;transform:matrix(.91,0,0,.91,0,0)"><circle cx="77.938" cy="60" r="4" fill="#f5e6c8" class="ldl-ani" style="stroke-width:1px;fill:#000;animation:none"/></g></g></g></svg>