<svg xmlns="http://www.w3.org/2000/svg" xml:space="preserve" id="圖層_1" x="0" y="0" preserveAspectRatio="xMidYMid" style="shape-rendering:auto;background:0 0;width:200px;height:200px;margin:0;animation:none;display:block" version="1.1" viewBox="13.97 20.11 72.07 59.78"><g class="ldl-scale" style="transform-origin:50px 50px;animation:none;transform:matrix(.8,0,0,.8,0,0)"><g class="ldl-ani"><g class="ldl-layer" style="transform-origin:50px 50px;transform-box:view-box;animation:none;transform:matrix(1.01568,0,0,1.01568,0,0)"><path fill="#f5e6c8" stroke="#333" stroke-miterlimit="10" stroke-width="3" d="M83.64 15.066c-.038 0-.074-.006-.112-.006H16.472c-1.938 0-3.728.64-5.194 1.708-2.284 1.663-3.778 4.373-3.778 7.39v34.944c0 4.955 4.017 8.846 8.972 8.846h43.756c2.117 8.5 7.991 14.439 16.216 16.992V67.949h7.083c4.955 0 8.972-3.891 8.972-8.846V24.158c.001-4.917-3.956-9.03-8.859-9.092z" class="ldl-ani" style="stroke-width:3px;fill:#f01e1e;stroke:#000;animation:none"/></g><g class="ldl-layer"><g class="ldl-ani"><g class="ldl-layer" style="transform-origin:50px 50px;transform-box:view-box;animation:none;transform:matrix(.97254,0,0,.97254,0,0)"><circle cx="28" cy="41.5" r="5.5" fill="#7a8f7c" class="ldl-ani" style="stroke-width:1px;fill:#000;animation:none"/></g><g class="ldl-layer" style="transform-origin:50px 50px;transform-box:view-box;animation:none;transform:matrix(.921517,0,0,.921517,0,0)"><circle cx="50" cy="41.5" r="5.5" fill="#849b87" class="ldl-ani" style="stroke-width:1px;fill:#000;animation:none"/></g><g class="ldl-layer" style="transform-origin:50px 50px;transform-box:view-box;animation:none;transform:matrix(.91,0,0,.91,0,0)"><circle cx="72" cy="41.5" r="5.5" fill="#96b099" class="ldl-ani" style="stroke-width:1px;fill:#000;animation:none"/></g></g></g></g></g></svg>