<svg xmlns="http://www.w3.org/2000/svg" xml:space="preserve" id="圖層_1" x="0" y="0" preserveAspectRatio="xMidYMid" style="shape-rendering:auto;background:0 0;width:200px;height:200px;margin:0;animation:none;display:block" version="1.1" viewBox="14 20.05 72 59.9"><g class="ldl-scale" style="transform-origin:50px 50px;animation:none;transform:matrix(.8,0,0,.8,0,0)"><g class="ldl-ani"><g class="ldl-layer" style="transform-box:view-box;transform-origin:50px 50px;animation:none;transform:matrix(1,0,0,1,0,0)"><path fill="#f5e6c8" stroke="#333" stroke-miterlimit="10" stroke-width="4" d="M83.528 15.06H16.472c-4.955 0-8.972 4.143-8.972 9.099v34.944c0 4.955 4.017 8.846 8.972 8.846h43.756c2.117 8.5 7.991 14.439 16.216 16.992V67.949h7.083c4.955 0 8.972-3.891 8.972-8.846V24.158c.001-4.955-4.016-9.098-8.971-9.098z" class="ldl-ani" style="stroke-width:4px;fill:#18dc27;stroke:#000;animation:none"/></g><g class="ldl-layer"><g class="ldl-ani"><g class="ldl-layer" style="transform-box:view-box;transform-origin:50px 50px;animation:none;transform:matrix(1,0,0,1,0,0)"><path fill="#849b87" d="M21.667 34.893h56.667v3.778H21.667z" class="ldl-ani" style="stroke-width:1px;fill:#000;animation:none"/></g><g class="ldl-layer" style="transform-box:view-box;transform-origin:50px 50px;animation:none;transform:matrix(1,0,0,1,0,0)"><path fill="#849b87" d="M21.667 44.338h56.667v3.778H21.667z" class="ldl-ani" style="stroke-width:1px;fill:#000;animation:none"/></g><g class="ldl-layer" style="transform-box:view-box;transform-origin:50px 50px;animation:none;transform:matrix(1,0,0,1,0,0)"><path fill="#849b87" d="M31.269 25.449h47.065v3.778H31.269z" class="ldl-ani" style="stroke-width:1px;fill:#000;animation:none"/></g><g class="ldl-layer" style="transform-box:view-box;transform-origin:50px 50px;animation:none;transform:matrix(1,0,0,1,0,0)"><path fill="#849b87" d="M21.667 53.782h56.667v3.778H21.667z" class="ldl-ani" style="stroke-width:1px;fill:#000;animation:none"/></g></g></g></g></g></svg>