<svg xmlns="http://www.w3.org/2000/svg" xml:space="preserve" id="圖層_1" width="47" height="47" x="0" y="0" style="background-size:initial;background-repeat-y:initial;background-repeat-x:initial;background-position-y:initial;background-position-x:initial;background-origin:initial;background-color:initial;background-clip:initial;background-attachment:initial;width:100%;height:100%;animation-play-state:paused" version="1.1" viewBox="0 0 100 100"><g fill="#333" class="ldl-scale" style="transform-origin:50%;animation-play-state:paused;transform:rotate(0) scale(.8)"><path d="M23.8 35.3V43c0 1.7-1.4 3-3 3H13c-1.7 0-3-1.4-3-3v-7.7c0-1.7 1.4-3 3-3h7.7c1.7 0 3.1 1.4 3.1 3M20.7 54H13c-1.7 0-3 1.4-3 3v7.7c0 1.7 1.4 3 3 3h7.7c1.7 0 3-1.4 3-3V57c.1-1.6-1.3-3-3-3M20.7 10.5H13c-1.7 0-3 1.4-3 3v7.8c0 1.7 1.4 3 3 3h7.7c1.7 0 3-1.4 3-3v-7.8c.1-1.6-1.3-3-3-3M10 78.7v7.7c0 1.7 1.4 3 3 3h7.7c1.7 0 3-1.4 3-3v-7.7c0-1.7-1.4-3-3-3H13c-1.6 0-3 1.4-3 3M87 32.3H30c-1.7 0-3 1.4-3 3V43c0 1.7 1.4 3 3 3h57c1.7 0 3-1.4 3-3v-7.7c0-1.6-1.4-3-3-3M87 54H30c-1.7 0-3 1.4-3 3v7.7c0 1.7 1.4 3 3 3h57c1.7 0 3-1.4 3-3V57c0-1.6-1.4-3-3-3M87 75.7H30c-1.7 0-3 1.4-3 3v7.7c0 1.7 1.4 3 3 3h57c1.7 0 3-1.4 3-3v-7.7c0-1.6-1.4-3-3-3M87 10.5H30c-1.7 0-3 1.4-3 3v7.8c0 1.7 1.4 3 3 3h57c1.7 0 3-1.4 3-3v-7.8c0-1.6-1.4-3-3-3" style="fill:#333;animation-play-state:paused"/></g></svg>