<svg xmlns="http://www.w3.org/2000/svg" xmlns:xlink="http://www.w3.org/1999/xlink" xml:space="preserve" y="0" x="0" id="圖層_1" version="1.1" preserveAspectRatio="xMidYMid" style="margin-top:0px;margin-right:0px;margin-bottom:0px;margin-left:0px;display:block;shape-rendering:auto;background-position-x:0%;background-position-y:0%;background-size:auto;background-origin:padding-box;background-clip:border-box;background:scroll rgba(0, 0, 0, 0) none  repeat;width:200px;height:200px;;animation:none" viewBox="16.71 19.58 68.91 60.9"><g class="ldl-scale" style="transform-origin:50px 50px;transform:matrix(0.8, 0, 0, 0.8, 0, 0);;animation:none"><g class="ldl-ani"><g class="ldl-layer"><g class="ldl-ani" style="transform-origin:50px 50px;transform:matrix(1.00333, 0, 0, 1.00333, 0, 0);animation-duration:1s;animation-timing-function:linear;animation-delay:-0.666667s;animation-iteration-count:infinite;animation-direction:normal;animation-fill-mode:forwards;animation-play-state:paused;animation-name:animate;animation-timeline:auto;animation-range-start:normal;animation-range-end:normal;transform-box:view-box;;animation:none"><path stroke-miterlimit="10" stroke-width="3" stroke="#000" fill="#666" d="M83.8 53.1c-.4-.3-.9-.5-1.4-.7 4.2-2.8 6.8-7.9 5.8-13.5-1-5.7-5.8-10.2-11.5-10.8-8.1-.9-14.9 5.4-14.9 13.2 0 4.7 2.4 8.7 6 11.1-.5.2-.9.4-1.4.7-5.2 3-8.7 8.6-8.7 15v11.4c0 3.3 2.7 6 6 6h22.8c3.3 0 6-2.7 6-6V68.2c0-6.5-3.5-12.1-8.7-15.1z" style="stroke-width:3px;fill:rgb(102, 102, 102);stroke:rgb(0, 0, 0);;animation:none"/></g></g>
<g class="ldl-layer"><g class="ldl-ani" style="transform-origin:50px 50px;transform:matrix(0.935119, 0, 0, 0.935119, 0, 0);animation-duration:1s;animation-timing-function:linear;animation-delay:-0.833333s;animation-iteration-count:infinite;animation-direction:normal;animation-fill-mode:forwards;animation-play-state:paused;animation-name:animate;animation-timeline:auto;animation-range-start:normal;animation-range-end:normal;transform-box:view-box;;animation:none"><path stroke-miterlimit="10" stroke-width="3" stroke="#000" fill="#666" d="M16.2 53.1c.4-.3.9-.5 1.4-.7-4.2-2.8-6.8-7.9-5.8-13.5 1-5.7 5.8-10.2 11.5-10.8 8.1-.9 14.9 5.4 14.9 13.2 0 4.7-2.4 8.7-6 11.1.5.2.9.4 1.4.7 5.2 3 8.7 8.6 8.7 15v11.4c0 3.3-2.7 6-6 6H13.5c-3.3 0-6-2.7-6-6V68.2c0-6.5 3.5-12.1 8.7-15.1z" style="stroke-width:3px;fill:rgb(102, 102, 102);stroke:rgb(0, 0, 0);;animation:none"/></g></g>
<g class="ldl-layer"><g class="ldl-ani" style="transform-origin:50px 50px;transform:matrix(0.91, 0, 0, 0.91, 0, 0);animation-duration:1s;animation-timing-function:linear;animation-delay:-1s;animation-iteration-count:infinite;animation-direction:normal;animation-fill-mode:forwards;animation-play-state:paused;animation-name:animate;animation-timeline:auto;animation-range-start:normal;animation-range-end:normal;transform-box:view-box;;animation:none"><path stroke-miterlimit="10" stroke-width="3" stroke="#000" fill="#f5e6c8" d="M62.1 45c-.6-.3-1.2-.6-1.9-.9 5.8-3.8 9.4-10.9 8-18.7-1.4-7.9-8-14.1-16-15-11.1-1.3-20.6 7.4-20.6 18.3 0 6.4 3.3 12.1 8.3 15.4-.6.3-1.3.6-1.9.9-7.2 4.1-12 11.9-12 20.8v15.7c0 4.6 3.7 8.3 8.3 8.3h31.4c4.6 0 8.3-3.7 8.3-8.3V65.8c.2-8.9-4.7-16.7-11.9-20.8z" style="stroke-width:3px;fill:rgb(255, 180, 30);stroke:rgb(0, 0, 0);;animation:none"/></g></g>
<metadata xmlns:d="https://loading.io/stock/"/></g></g>
<STYLE type="text/css">@keyframes animate { 0.00% {transform: translate(0.00px,0.00px) rotate(0.00deg) scale(0.91, 0.91) skew(0deg, 0.00deg) ;opacity: 1.00;}4.00% {transform: translate(0.00px,0.00px) rotate(0.00deg) scale(0.91, 0.91) ;}8.00% {animation-timing-function: cubic-bezier(0.69,0.60,0.35,0.27);transform: translate(0.00px,0.00px) rotate(0.00deg) scale(0.91, 0.91) ;}14.00% {transform: translate(0.00px,0.00px) rotate(0.00deg) scale(0.93, 0.93) ;}18.00% {transform: translate(0.00px,0.00px) rotate(0.00deg) scale(0.94, 0.94) ;}22.00% {animation-timing-function: cubic-bezier(0.67,0.66,0.34,0.33);transform: translate(0.00px,0.00px) rotate(0.00deg) scale(0.96, 0.96) ;}26.00% {transform: translate(0.00px,0.00px) rotate(0.00deg) scale(0.97, 0.97) ;}30.00% {transform: translate(0.00px,0.00px) rotate(0.00deg) scale(0.99, 0.99) ;}34.00% {animation-timing-function: cubic-bezier(0.65,0.71,0.32,0.38);transform: translate(0.00px,0.00px) rotate(0.00deg) scale(1.01, 1.01) ;}40.00% {animation-timing-function: cubic-bezier(0.64,0.74,0.31,0.41);transform: translate(0.00px,0.00px) rotate(0.00deg) scale(1.02, 1.02) ;}46.00% {animation-timing-function: cubic-bezier(0.60,0.91,0.23,0.63);transform: translate(0.00px,0.00px) rotate(0.00deg) scale(1.03, 1.03) ;}50.00% {transform: translate(0.00px,0.00px) rotate(0.00deg) scale(1.03, 1.03) ;}54.00% {transform: translate(0.00px,0.00px) rotate(0.00deg) scale(1.03, 1.03) ;}58.00% {animation-timing-function: cubic-bezier(0.69,0.60,0.35,0.27);transform: translate(0.00px,0.00px) rotate(0.00deg) scale(1.03, 1.03) ;}64.00% {transform: translate(0.00px,0.00px) rotate(0.00deg) scale(1.01, 1.01) ;}68.00% {transform: translate(0.00px,0.00px) rotate(0.00deg) scale(1.00, 1.00) ;}72.00% {animation-timing-function: cubic-bezier(0.67,0.66,0.34,0.33);transform: translate(0.00px,0.00px) rotate(0.00deg) scale(0.98, 0.98) ;}76.00% {animation-timing-function: cubic-bezier(0.66,0.68,0.33,0.35);transform: translate(0.00px,0.00px) rotate(0.00deg) scale(0.97, 0.97) ;}82.00% {animation-timing-function: cubic-bezier(0.65,0.71,0.32,0.38);transform: translate(0.00px,0.00px) rotate(0.00deg) scale(0.94, 0.94) ;}88.00% {animation-timing-function: cubic-bezier(0.65,0.73,0.31,0.40);transform: translate(0.00px,0.00px) rotate(0.00deg) scale(0.92, 0.92) ;}94.00% {animation-timing-function: cubic-bezier(0.63,0.80,0.28,0.48);transform: translate(0.00px,0.00px) rotate(0.00deg) scale(0.91, 0.91) ;}100.00% {animation-timing-function: cubic-bezier(0.63,0.80,0.28,0.48);transform: translate(0.00px,0.00px) rotate(0.00deg) scale(0.91, 0.91) ;} }</STYLE><!-- [ldio] generated by https://loading.io --></svg>