<svg xmlns="http://www.w3.org/2000/svg" xml:space="preserve" id="圖層_1" x="0" y="0" preserveAspectRatio="xMidYMid" style="shape-rendering:auto;background:0 0;width:200px;height:200px;margin:0;animation:none;display:block" version="1.1" viewBox="16.71 19.58 68.91 60.9"><g class="ldl-scale" style="transform-origin:50px 50px;animation:none;transform:matrix(.8,0,0,.8,0,0)"><g class="ldl-ani"><g class="ldl-layer" style="transform-origin:50px 50px;transform-box:view-box;animation:none;transform:matrix(1.00333,0,0,1.00333,0,0)"><path fill="#666" stroke="#000" stroke-miterlimit="10" stroke-width="3" d="M83.8 53.1c-.4-.3-.9-.5-1.4-.7 4.2-2.8 6.8-7.9 5.8-13.5-1-5.7-5.8-10.2-11.5-10.8-8.1-.9-14.9 5.4-14.9 13.2 0 4.7 2.4 8.7 6 11.1-.5.2-.9.4-1.4.7-5.2 3-8.7 8.6-8.7 15v11.4c0 3.3 2.7 6 6 6h22.8c3.3 0 6-2.7 6-6V68.2c0-6.5-3.5-12.1-8.7-15.1z" class="ldl-ani" style="stroke-width:3px;fill:#666;stroke:#000;animation:none"/></g><g class="ldl-layer" style="transform-origin:50px 50px;transform-box:view-box;animation:none;transform:matrix(.935119,0,0,.935119,0,0)"><path fill="#666" stroke="#000" stroke-miterlimit="10" stroke-width="3" d="M16.2 53.1c.4-.3.9-.5 1.4-.7-4.2-2.8-6.8-7.9-5.8-13.5 1-5.7 5.8-10.2 11.5-10.8 8.1-.9 14.9 5.4 14.9 13.2 0 4.7-2.4 8.7-6 11.1.5.2.9.4 1.4.7 5.2 3 8.7 8.6 8.7 15v11.4c0 3.3-2.7 6-6 6H13.5c-3.3 0-6-2.7-6-6V68.2c0-6.5 3.5-12.1 8.7-15.1z" class="ldl-ani" style="stroke-width:3px;fill:#666;stroke:#000;animation:none"/></g><g class="ldl-layer" style="transform-origin:50px 50px;transform-box:view-box;animation:none;transform:matrix(.91,0,0,.91,0,0)"><path fill="#f5e6c8" stroke="#000" stroke-miterlimit="10" stroke-width="3" d="M62.1 45c-.6-.3-1.2-.6-1.9-.9 5.8-3.8 9.4-10.9 8-18.7-1.4-7.9-8-14.1-16-15-11.1-1.3-20.6 7.4-20.6 18.3 0 6.4 3.3 12.1 8.3 15.4-.6.3-1.3.6-1.9.9-7.2 4.1-12 11.9-12 20.8v15.7c0 4.6 3.7 8.3 8.3 8.3h31.4c4.6 0 8.3-3.7 8.3-8.3V65.8c.2-8.9-4.7-16.7-11.9-20.8z" class="ldl-ani" style="stroke-width:3px;fill:#ffb41e;stroke:#000;animation:none"/></g></g></g></svg>