<svg xmlns="http://www.w3.org/2000/svg" xmlns:xlink="http://www.w3.org/1999/xlink" xml:space="preserve" y="0" x="0" id="圖層_1" version="1.1" preserveAspectRatio="xMidYMid" style="margin-top:0px;margin-right:0px;margin-bottom:0px;margin-left:0px;display:block;shape-rendering:auto;background-position-x:0%;background-position-y:0%;background-size:auto;background-origin:padding-box;background-clip:border-box;background:scroll rgba(0, 0, 0, 0) none  repeat;width:200px;height:200px;;animation:none" viewBox="14.82 22.58 70.35 54.84"><g class="ldl-scale" style="transform-origin:50px 50px;transform:matrix(0.8, 0, 0, 0.8, 0, 0);;animation:none"><g class="ldl-ani"><g class="ldl-layer"><g class="ldl-ani" style="transform:matrix(1, 0, 0, 1, 0, 0);transform-box:view-box;animation-duration:1s;animation-timing-function:linear;animation-delay:-0.666667s;animation-iteration-count:infinite;animation-direction:normal;animation-fill-mode:forwards;animation-play-state:paused;animation-name:animate;animation-timeline:auto;animation-range-start:normal;animation-range-end:normal;transform-origin:50px 50px;;animation:none"><path fill="#666" d="M88.628 26.492c3.143 1.394 5.339 4.536 5.339 8.196v4.928h-.972c-.057-4.363-3.619-7.895-7.995-7.895a8.002 8.002 0 0 0-7 4.136c-2.997-5.408-11.003-5.407-14 0-2.997-5.408-11.003-5.407-14 0-2.997-5.408-11.003-5.407-14 0-2.997-5.408-11.003-5.407-14 0a8.004 8.004 0 0 0-7-4.136c-4.376 0-7.938 3.533-7.995 7.895h-.972v-4.928c0-3.66 2.196-6.802 5.339-8.196A5.984 5.984 0 0 1 9 21.721a6 6 0 1 1 12 0 5.984 5.984 0 0 1-2.372 4.771A8.987 8.987 0 0 1 22 29.124a8.984 8.984 0 0 1 3.372-2.631A5.987 5.987 0 0 1 23 21.721a6 6 0 1 1 12 0 5.984 5.984 0 0 1-2.372 4.771A8.987 8.987 0 0 1 36 29.124a8.984 8.984 0 0 1 3.372-2.631A5.987 5.987 0 0 1 37 21.721a6 6 0 1 1 12 0 5.984 5.984 0 0 1-2.372 4.771A8.987 8.987 0 0 1 50 29.124a8.984 8.984 0 0 1 3.372-2.631A5.987 5.987 0 0 1 51 21.721a6 6 0 1 1 12 0 5.984 5.984 0 0 1-2.372 4.771A8.987 8.987 0 0 1 64 29.124a8.984 8.984 0 0 1 3.372-2.631A5.987 5.987 0 0 1 65 21.721a6 6 0 1 1 12 0 5.984 5.984 0 0 1-2.372 4.771A8.987 8.987 0 0 1 78 29.124a8.984 8.984 0 0 1 3.372-2.631A5.987 5.987 0 0 1 79 21.721a6 6 0 1 1 12 0 5.984 5.984 0 0 1-2.372 4.771z" id="XMLID_59_" style="stroke-width:1px;fill:rgb(102, 102, 102);;animation:none"/></g></g>
<g class="ldl-layer"><g class="ldl-ani" style="transform:matrix(1, 0, 0, 1, 0, 0);transform-box:view-box;animation-duration:1s;animation-timing-function:linear;animation-delay:-0.833333s;animation-iteration-count:infinite;animation-direction:normal;animation-fill-mode:forwards;animation-play-state:paused;animation-name:animate;animation-timeline:auto;animation-range-start:normal;animation-range-end:normal;transform-origin:50px 50px;;animation:none"><path d="M89.932 59.939c0-.978-.181-1.911-.496-2.78-1.155-3.183-4.274-5.381-7.665-5.381s-6.509 2.197-7.665 5.381a8.134 8.134 0 0 0-.496 2.78 8.14 8.14 0 0 0 3.226 6.489 12.255 12.255 0 0 0-5.656 5.105 12.26 12.26 0 0 0-5.656-5.105 8.14 8.14 0 0 0 3.226-6.489c0-.978-.181-1.911-.496-2.78-1.155-3.184-4.274-5.381-7.664-5.381-3.391 0-6.509 2.197-7.664 5.381a8.134 8.134 0 0 0-.496 2.78 8.14 8.14 0 0 0 3.226 6.489A12.255 12.255 0 0 0 50 71.533a12.26 12.26 0 0 0-5.656-5.105 8.14 8.14 0 0 0 3.226-6.489c0-.978-.181-1.911-.496-2.78-1.155-3.183-4.274-5.381-7.665-5.381s-6.509 2.197-7.665 5.381a8.134 8.134 0 0 0-.496 2.78 8.14 8.14 0 0 0 3.226 6.489 12.255 12.255 0 0 0-5.656 5.105 12.26 12.26 0 0 0-5.656-5.105 8.14 8.14 0 0 0 3.226-6.489c0-.978-.181-1.911-.496-2.78-1.155-3.184-4.274-5.381-7.664-5.381-3.391 0-6.506 2.196-7.664 5.378a8.122 8.122 0 0 0-.497 2.782 8.14 8.14 0 0 0 3.226 6.489c-4.275 1.896-7.262 6.17-7.262 11.147v6.703H93.963v-6.703c0-4.978-2.986-9.252-7.262-11.147a8.127 8.127 0 0 0 3.231-6.488z" id="XMLID_134_" style="stroke-width:1px;;animation:none"/></g></g>
<g class="ldl-layer"><g class="ldl-ani" style="transform:matrix(1, 0, 0, 1, 0, 0);transform-box:view-box;animation-duration:1s;animation-timing-function:linear;animation-delay:-1s;animation-iteration-count:infinite;animation-direction:normal;animation-fill-mode:forwards;animation-play-state:paused;animation-name:animate;animation-timeline:auto;animation-range-start:normal;animation-range-end:normal;transform-origin:50px 50px;;animation:none"><path fill="#333" d="M91 39.721a5.97 5.97 0 0 0-1.408-3.858c-2.49-2.716-6.717-2.847-9.184 0a5.984 5.984 0 0 0 .964 8.629A8.994 8.994 0 0 0 78 47.124a8.984 8.984 0 0 0-3.372-2.631 5.987 5.987 0 0 0 .964-8.63c-2.49-2.716-6.717-2.847-9.184 0a5.984 5.984 0 0 0 .964 8.629A8.994 8.994 0 0 0 64 47.124a8.984 8.984 0 0 0-3.372-2.631 5.987 5.987 0 0 0 .964-8.63c-2.49-2.716-6.717-2.847-9.184 0a5.984 5.984 0 0 0 .964 8.629A8.994 8.994 0 0 0 50 47.124a8.984 8.984 0 0 0-3.372-2.631 5.987 5.987 0 0 0 .964-8.63c-2.49-2.716-6.717-2.847-9.184 0a5.984 5.984 0 0 0 .964 8.629A8.994 8.994 0 0 0 36 47.124a8.984 8.984 0 0 0-3.372-2.631 5.987 5.987 0 0 0 .964-8.63c-2.49-2.716-6.717-2.847-9.184 0a5.984 5.984 0 0 0 .964 8.629A8.994 8.994 0 0 0 22 47.124a8.984 8.984 0 0 0-3.372-2.631 5.987 5.987 0 0 0 .964-8.63c-2.49-2.716-6.717-2.847-9.184 0a5.984 5.984 0 0 0 .964 8.629c-3.143 1.394-5.339 4.536-5.339 8.196v4.928h2.314c1.055-4.485 5.08-7.838 9.882-7.838s8.828 3.353 9.882 7.838h1.416c1.055-4.485 5.08-7.838 9.882-7.838s8.828 3.353 9.882 7.838H50.707c1.055-4.485 5.08-7.838 9.882-7.838s8.828 3.353 9.882 7.838h1.416c1.055-4.485 5.08-7.838 9.882-7.838s8.828 3.353 9.882 7.838h2.314v-4.928c0-3.66-2.196-6.802-5.339-8.196A5.98 5.98 0 0 0 91 39.721z" id="XMLID_142_" style="stroke-width:1px;fill:rgb(51, 51, 51);;animation:none"/></g></g>
<metadata xmlns:d="https://loading.io/stock/"/></g></g>
<STYLE type="text/css">@keyframes animate { 0.00% {animation-timing-function: cubic-bezier(0.33,0.00,0.67,0.00);transform: translate(0.00px,0.00px) rotate(0.00deg) scale(1.00, 1.00) skew(0deg, 0.00deg) ;opacity: 1.00;}50.00% {animation-timing-function: cubic-bezier(0.33,0.00,0.67,0.00);transform: translate(0.00px,0.00px) rotate(0.00deg) ;}100.00% {animation-timing-function: cubic-bezier(0.33,0.00,0.67,0.00);transform: translate(0.00px,0.00px) rotate(0.00deg) ;} }</STYLE><!-- [ldio] generated by https://loading.io --></svg>