<svg xmlns="http://www.w3.org/2000/svg" xmlns:xlink="http://www.w3.org/1999/xlink" preserveAspectRatio="xMidYMid" style="margin-top:0px;margin-right:0px;margin-bottom:0px;margin-left:0px;display:block;shape-rendering:auto;background-position-x:0%;background-position-y:0%;background-size:auto;background-origin:padding-box;background-clip:border-box;background:scroll rgba(0, 0, 0, 0) none  repeat;width:200px;height:200px;;animation:none" viewBox="15.87 14.5 68.26 71"><g class="ldl-scale" style="transform-origin:50px 50px;transform:matrix(0.8, 0, 0, 0.8, 0, 0);;animation:none"><g class="ldl-ani"><g class="ldl-layer"><g class="ldl-ani" style="transform:matrix(1, 0, 0, 1, 0, 0);transform-box:view-box;animation-duration:1s;animation-timing-function:linear;animation-delay:-0.555556s;animation-iteration-count:infinite;animation-direction:normal;animation-fill-mode:forwards;animation-play-state:paused;animation-name:animate;animation-timeline:auto;animation-range-start:normal;animation-range-end:normal;transform-origin:50px 50px;;animation:none"><path d="M46.141 32.828l17.554 8.758" stroke-miterlimit="10" stroke-linejoin="round" stroke-linecap="round" stroke-width="3" stroke="#323232" fill="none" style="stroke-width:3px;stroke:rgb(50, 50, 50);fill:none;;animation:none"/></g></g>
<g class="ldl-layer"><g class="ldl-ani" style="transform:matrix(1, 0, 0, 1, 0, 0);transform-box:view-box;animation-duration:1s;animation-timing-function:linear;animation-delay:-0.611111s;animation-iteration-count:infinite;animation-direction:normal;animation-fill-mode:forwards;animation-play-state:paused;animation-name:animate;animation-timeline:auto;animation-range-start:normal;animation-range-end:normal;transform-origin:50px 50px;;animation:none"><path d="M28.219 45.509l6.961 25.068" stroke-miterlimit="10" stroke-linejoin="round" stroke-linecap="round" stroke-width="3" stroke="#323232" fill="none" style="stroke-width:3px;stroke:rgb(50, 50, 50);fill:none;;animation:none"/></g></g>
<g class="ldl-layer"><g class="ldl-ani" style="transform:matrix(1, 0, 0, 1, 0, 0);transform-box:view-box;animation-duration:1s;animation-timing-function:linear;animation-delay:-0.666667s;animation-iteration-count:infinite;animation-direction:normal;animation-fill-mode:forwards;animation-play-state:paused;animation-name:animate;animation-timeline:auto;animation-range-start:normal;animation-range-end:normal;transform-origin:50px 50px;;animation:none"><path d="M45.372 77.524l19.801-18.635" stroke-miterlimit="10" stroke-linejoin="round" stroke-linecap="round" stroke-width="3" stroke="#323232" fill="none" style="stroke-width:3px;stroke:rgb(50, 50, 50);fill:none;;animation:none"/></g></g>
<g class="ldl-layer"><g class="ldl-ani"><g><g class="ldl-layer"><g class="ldl-ani" style="transform:matrix(1, 0, 0, 1, 0, 0);transform-box:view-box;animation-duration:1s;animation-timing-function:linear;animation-delay:-0.722222s;animation-iteration-count:infinite;animation-direction:normal;animation-fill-mode:forwards;animation-play-state:paused;animation-name:animate;animation-timeline:auto;animation-range-start:normal;animation-range-end:normal;transform-origin:50px 50px;;animation:none"><path stroke-miterlimit="10" stroke-linejoin="round" stroke-linecap="round" stroke-width="3" stroke="#849b87" fill="none" d="M42.496 39.045l.036-.524a1.83 1.83 0 0 0-.505-1.198l-4.742-4.972a1.832 1.832 0 0 0-1.327-.568h-2.825a1.293 1.293 0 0 1-1.293-1.293v-2.035a4.802 4.802 0 0 0 2.754-4.341v-4.905a4.763 4.763 0 0 0-4.763-4.763h-3.225a4.763 4.763 0 0 0-4.763 4.763v4.905a4.803 4.803 0 0 0 2.754 4.341v2.035c0 .714-.579 1.293-1.293 1.293h-2.825c-.501 0-.981.205-1.327.568l-4.742 4.972a1.833 1.833 0 0 0-.505 1.198l.036.524" style="stroke-width:3px;stroke:rgb(51, 178, 0);fill:none;;animation:none"/></g></g>
<g class="ldl-layer"><g class="ldl-ani" style="transform:matrix(1, 0, 0, 1, 0, 0);transform-box:view-box;animation-duration:1s;animation-timing-function:linear;animation-delay:-0.777778s;animation-iteration-count:infinite;animation-direction:normal;animation-fill-mode:forwards;animation-play-state:paused;animation-name:animate;animation-timeline:auto;animation-range-start:normal;animation-range-end:normal;transform-origin:50px 50px;;animation:none"><circle stroke-miterlimit="10" stroke-linejoin="round" stroke-linecap="round" stroke-width="3" stroke="#000" fill="none" r="19.005" cy="26.505" cx="28.219" style="stroke-width:3px;fill:none;stroke:rgb(0, 0, 0);;animation:none"/></g></g></g></g></g>
<g class="ldl-layer"><g class="ldl-ani"><g><g class="ldl-layer"><g class="ldl-ani" style="transform:matrix(1, 0, 0, 1, 0, 0);transform-box:view-box;animation-duration:1s;animation-timing-function:linear;animation-delay:-0.833333s;animation-iteration-count:infinite;animation-direction:normal;animation-fill-mode:forwards;animation-play-state:paused;animation-name:animate;animation-timeline:auto;animation-range-start:normal;animation-range-end:normal;transform-origin:50px 50px;;animation:none"><path stroke-miterlimit="10" stroke-linejoin="round" stroke-linecap="round" stroke-width="3" stroke="#849b87" fill="none" d="M43.415 88.772l.021-.302a1.057 1.057 0 0 0-.291-.691l-2.735-2.868a1.06 1.06 0 0 0-.765-.328h-1.63a.746.746 0 0 1-.746-.746v-1.174a2.77 2.77 0 0 0 1.588-2.504V77.33a2.747 2.747 0 0 0-2.747-2.747h-1.86a2.747 2.747 0 0 0-2.747 2.747v2.829a2.77 2.77 0 0 0 1.588 2.504v1.174a.746.746 0 0 1-.746.746h-1.63c-.289 0-.566.118-.765.328l-2.735 2.868a1.057 1.057 0 0 0-.291.691l.021.302" style="stroke-width:3px;stroke:rgb(51, 178, 0);fill:none;;animation:none"/></g></g>
<g class="ldl-layer"><g class="ldl-ani" style="transform:matrix(1, 0, 0, 1, 0, 0);transform-box:view-box;animation-duration:1s;animation-timing-function:linear;animation-delay:-0.888889s;animation-iteration-count:infinite;animation-direction:normal;animation-fill-mode:forwards;animation-play-state:paused;animation-name:animate;animation-timeline:auto;animation-range-start:normal;animation-range-end:normal;transform-origin:50px 50px;;animation:none"><circle stroke-miterlimit="10" stroke-linejoin="round" stroke-linecap="round" stroke-width="3" stroke="#000" fill="none" r="10.962" cy="81.538" cx="35.18" style="stroke-width:3px;fill:none;stroke:rgb(0, 0, 0);;animation:none"/></g></g></g></g></g>
<g class="ldl-layer"><g class="ldl-ani"><g><g class="ldl-layer"><g class="ldl-ani" style="transform:matrix(1, 0, 0, 1, 0, 0);transform-box:view-box;animation-duration:1s;animation-timing-function:linear;animation-delay:-0.944444s;animation-iteration-count:infinite;animation-direction:normal;animation-fill-mode:forwards;animation-play-state:paused;animation-name:animate;animation-timeline:auto;animation-range-start:normal;animation-range-end:normal;transform-origin:50px 50px;;animation:none"><path stroke-miterlimit="10" stroke-linejoin="round" stroke-linecap="round" stroke-width="3" stroke="#849b87" fill="none" d="M87.147 58.889l.028-.403a1.41 1.41 0 0 0-.389-.922l-3.649-3.827a1.41 1.41 0 0 0-1.021-.437h-2.174a.995.995 0 0 1-.995-.995v-1.566a3.695 3.695 0 0 0 2.119-3.34v-3.775a3.665 3.665 0 0 0-3.665-3.665h-2.482a3.665 3.665 0 0 0-3.665 3.665v3.775c0 1.477.868 2.748 2.119 3.34v1.566c0 .55-.446.995-.995.995h-2.174a1.41 1.41 0 0 0-1.021.437l-3.649 3.827c-.238.25-.376.578-.389.922l.028.403" style="stroke-width:3px;stroke:rgb(51, 178, 0);fill:none;;animation:none"/></g></g>
<g class="ldl-layer"><g class="ldl-ani" style="transform:matrix(1, 0, 0, 1, 0, 0);transform-box:view-box;animation-duration:1s;animation-timing-function:linear;animation-delay:-1s;animation-iteration-count:infinite;animation-direction:normal;animation-fill-mode:forwards;animation-play-state:paused;animation-name:animate;animation-timeline:auto;animation-range-start:normal;animation-range-end:normal;transform-origin:50px 50px;;animation:none"><circle stroke-miterlimit="10" stroke-linejoin="round" stroke-linecap="round" stroke-width="3" stroke="#000" fill="none" r="14.626" cy="49.238" cx="76.16" style="stroke-width:3px;fill:none;stroke:rgb(0, 0, 0);;animation:none"/></g></g></g></g></g>
<metadata xmlns:d="https://loading.io/stock/"/></g></g>
<STYLE type="text/css">@keyframes animate { 0.00% {animation-timing-function: cubic-bezier(0.33,0.00,0.67,0.00);transform: translate(0.00px,0.00px) rotate(0.00deg) scale(1.00, 1.00) skew(0deg, 0.00deg) ;opacity: 1.00;}50.00% {animation-timing-function: cubic-bezier(0.33,0.00,0.67,0.00);transform: translate(0.00px,0.00px) rotate(0.00deg) ;}100.00% {animation-timing-function: cubic-bezier(0.33,0.00,0.67,0.00);transform: translate(0.00px,0.00px) rotate(0.00deg) ;} }</STYLE><!-- [ldio] generated by https://loading.io --></svg>