<svg width="420" height="95" viewBox="0 0 420 95" fill="none" xmlns="http://www.w3.org/2000/svg">
<path d="M10 93.152C6.928 93.152 4.70933 92.7253 3.344 91.872C1.97867 90.9333 1.12533 89.696 0.784 88.16C0.528 86.624 0.4 85.0453 0.4 83.424V13.28C0.4 11.6587 0.528 10.1227 0.784 8.672C1.12533 7.136 1.97867 5.94133 3.344 5.088C4.70933 4.14933 6.97067 3.67999 10.128 3.67999C13.3707 3.67999 15.632 4.14933 16.912 5.088C18.2773 6.02666 19.088 7.22133 19.344 8.672C19.6853 10.1227 19.856 11.7013 19.856 13.408V35.552L47.248 6.88C48.9547 5.17333 50.4907 3.97866 51.856 3.296C53.3067 2.61333 54.7573 2.48533 56.208 2.91199C57.744 3.33866 59.3653 4.40533 61.072 6.112C63.9733 8.75733 65.424 11.104 65.424 13.152C65.5093 15.1147 64.3147 17.3333 61.84 19.808L32.4 48.48L62.096 76.896C64.7413 79.5413 65.9787 81.9307 65.808 84.064C65.7227 86.112 64.2293 88.3307 61.328 90.72C59.28 92.4267 57.488 93.4933 55.952 93.92C54.5013 94.432 53.136 94.304 51.856 93.536C50.576 92.8533 49.1253 91.616 47.504 89.824L19.856 61.024V83.552C19.856 85.1733 19.6853 86.752 19.344 88.288C19.088 89.7387 18.2773 90.9333 16.912 91.872C15.5467 92.7253 13.2427 93.152 10 93.152ZM121.847 93.024C118.69 93.024 116.343 92.4693 114.807 91.36C113.356 90.2507 112.631 88.8853 112.631 87.264L113.911 85.088C113.399 85.9413 112.418 87.008 110.967 88.288C109.516 89.4827 107.639 90.592 105.335 91.616C103.031 92.5547 100.172 93.024 96.759 93.024C92.8337 93.024 89.079 92.1707 85.495 90.464C81.9963 88.7573 78.8817 86.4107 76.151 83.424C73.4203 80.352 71.2443 76.896 69.623 73.056C68.087 69.216 67.319 65.1627 67.319 60.896C67.319 56.7147 68.087 52.7467 69.623 48.992C71.2443 45.152 73.4203 41.7813 76.151 38.88C78.967 35.8933 82.1243 33.5467 85.623 31.84C89.1217 30.1333 92.8337 29.28 96.759 29.28C99.9163 29.28 102.604 29.7493 104.823 30.688C107.042 31.5413 108.876 32.5653 110.327 33.76C111.863 34.9547 113.015 36.1067 113.783 37.216L112.759 35.424C112.674 33.376 113.356 31.84 114.807 30.816C116.343 29.7067 118.732 29.152 121.975 29.152C125.047 29.152 127.223 29.6213 128.503 30.56C129.868 31.4987 130.679 32.736 130.935 34.272C131.276 35.808 131.447 37.4293 131.447 39.136V83.296C131.447 84.9173 131.276 86.496 130.935 88.032C130.679 89.568 129.868 90.8053 128.503 91.744C127.223 92.5973 125.004 93.024 121.847 93.024ZM99.575 73.952C101.794 73.952 103.799 73.3973 105.591 72.288C107.468 71.0933 108.919 69.5147 109.943 67.552C111.052 65.5893 111.607 63.4133 111.607 61.024C111.607 58.5493 111.052 56.3733 109.943 54.496C108.834 52.5333 107.34 50.9973 105.463 49.888C103.586 48.6933 101.538 48.096 99.319 48.096C96.8443 48.096 94.6257 48.6933 92.663 49.888C90.7857 51.0827 89.2497 52.6613 88.055 54.624C86.9457 56.5867 86.391 58.8053 86.391 61.28C86.391 63.584 86.9457 65.7173 88.055 67.68C89.2497 69.5573 90.8283 71.0933 92.791 72.288C94.839 73.3973 97.1003 73.952 99.575 73.952ZM151.348 93.024C148.191 93.024 145.929 92.5973 144.564 91.744C143.284 90.8053 142.473 89.6107 142.132 88.16C141.876 86.624 141.748 85.0453 141.748 83.424V38.368C141.748 36.7467 141.919 35.2533 142.26 33.888C142.601 32.4373 143.412 31.2853 144.692 30.432C146.057 29.5787 148.319 29.152 151.476 29.152C154.207 29.152 156.212 29.536 157.492 30.304C158.772 30.9867 159.583 31.84 159.924 32.864C160.351 33.888 160.564 34.8693 160.564 35.808C160.564 36.6613 160.649 37.2587 160.82 37.6L160.052 40.032C160.223 38.752 160.863 37.472 161.972 36.192C163.167 34.8267 164.617 33.632 166.324 32.608C168.116 31.4987 169.993 30.6453 171.956 30.048C174.004 29.4507 176.009 29.152 177.972 29.152C182.068 29.152 185.695 29.92 188.852 31.456C192.095 32.9067 194.825 35.04 197.044 37.856C199.263 40.672 200.927 44 202.036 47.84C203.231 51.5947 203.828 55.7333 203.828 60.256V83.552C203.828 85.1733 203.657 86.752 203.316 88.288C203.06 89.7387 202.249 90.8907 200.884 91.744C199.604 92.5973 197.385 93.024 194.228 93.024C190.985 93.024 188.681 92.5973 187.316 91.744C186.036 90.8053 185.225 89.6107 184.884 88.16C184.543 86.624 184.372 85.0453 184.372 83.424V60.256C184.372 57.696 183.945 55.52 183.092 53.728C182.239 51.936 180.959 50.5707 179.252 49.632C177.545 48.608 175.455 48.096 172.98 48.096C170.505 48.096 168.372 48.608 166.58 49.632C164.788 50.656 163.38 52.064 162.356 53.856C161.417 55.648 160.948 57.7813 160.948 60.256V83.552C160.948 85.1733 160.777 86.752 160.436 88.288C160.18 89.7387 159.369 90.8907 158.004 91.744C156.724 92.5973 154.505 93.024 151.348 93.024ZM248.177 93.024C243.996 93.024 240.284 92.1707 237.041 90.464C233.884 88.672 231.238 86.2827 229.105 83.296C227.057 80.3093 225.478 76.896 224.369 73.056C223.345 69.216 222.876 65.12 222.961 60.768C222.961 56.5867 223.516 52.576 224.625 48.736C225.734 44.896 227.313 41.5253 229.361 38.624C231.494 35.7227 234.097 33.4613 237.169 31.84C240.326 30.1333 243.996 29.28 248.177 29.28C251.932 29.28 255.558 30.1333 259.057 31.84C262.641 33.5467 265.798 35.8933 268.529 38.88C271.26 41.7813 273.393 45.152 274.929 48.992C276.55 52.7467 277.361 56.7147 277.361 60.896C277.361 65.248 276.55 69.3867 274.929 73.312C273.393 77.152 271.26 80.5653 268.529 83.552C265.798 86.5387 262.684 88.8853 259.185 90.592C255.686 92.2133 252.017 93.024 248.177 93.024ZM245.489 74.08C247.878 74.08 250.012 73.5253 251.889 72.416C253.766 71.2213 255.26 69.6427 256.369 67.68C257.564 65.7173 258.161 63.5413 258.161 61.152C258.161 58.6773 257.606 56.5013 256.497 54.624C255.388 52.6613 253.894 51.1253 252.017 50.016C250.14 48.9067 248.006 48.352 245.617 48.352C243.313 48.352 241.18 48.9067 239.217 50.016C237.34 51.1253 235.846 52.6613 234.737 54.624C233.713 56.5013 233.201 58.6773 233.201 61.152C233.201 63.5413 233.756 65.7173 234.865 67.68C235.974 69.6427 237.468 71.2213 239.345 72.416C241.222 73.5253 243.27 74.08 245.489 74.08ZM223.217 93.152C220.145 93.152 217.926 92.6827 216.561 91.744C215.196 90.8053 214.342 89.6107 214.001 88.16C213.745 86.624 213.617 85.0453 213.617 83.424V9.824C213.617 8.032 213.788 6.41066 214.129 4.96C214.47 3.50933 215.281 2.35733 216.561 1.504C217.926 0.565328 220.188 0.095993 223.345 0.095993C226.417 0.095993 228.593 0.565328 229.873 1.504C231.153 2.44266 231.921 3.68 232.177 5.216C232.433 6.66666 232.518 8.20266 232.433 9.824V87.392C232.006 89.3547 231.11 90.8053 229.745 91.744C228.38 92.6827 226.204 93.152 223.217 93.152ZM337.597 93.024C334.44 93.024 332.093 92.4693 330.557 91.36C329.106 90.2507 328.381 88.8853 328.381 87.264L329.661 85.088C329.149 85.9413 328.168 87.008 326.717 88.288C325.266 89.4827 323.389 90.592 321.085 91.616C318.781 92.5547 315.922 93.024 312.509 93.024C308.584 93.024 304.829 92.1707 301.245 90.464C297.746 88.7573 294.632 86.4107 291.901 83.424C289.17 80.352 286.994 76.896 285.373 73.056C283.837 69.216 283.069 65.1627 283.069 60.896C283.069 56.7147 283.837 52.7467 285.373 48.992C286.994 45.152 289.17 41.7813 291.901 38.88C294.717 35.8933 297.874 33.5467 301.373 31.84C304.872 30.1333 308.584 29.28 312.509 29.28C315.666 29.28 318.354 29.7493 320.573 30.688C322.792 31.5413 324.626 32.5653 326.077 33.76C327.613 34.9547 328.765 36.1067 329.533 37.216L328.509 35.424C328.424 33.376 329.106 31.84 330.557 30.816C332.093 29.7067 334.482 29.152 337.725 29.152C340.797 29.152 342.973 29.6213 344.253 30.56C345.618 31.4987 346.429 32.736 346.685 34.272C347.026 35.808 347.197 37.4293 347.197 39.136V83.296C347.197 84.9173 347.026 86.496 346.685 88.032C346.429 89.568 345.618 90.8053 344.253 91.744C342.973 92.5973 340.754 93.024 337.597 93.024ZM315.325 73.952C317.544 73.952 319.549 73.3973 321.341 72.288C323.218 71.0933 324.669 69.5147 325.693 67.552C326.802 65.5893 327.357 63.4133 327.357 61.024C327.357 58.5493 326.802 56.3733 325.693 54.496C324.584 52.5333 323.09 50.9973 321.213 49.888C319.336 48.6933 317.288 48.096 315.069 48.096C312.594 48.096 310.376 48.6933 308.413 49.888C306.536 51.0827 305 52.6613 303.805 54.624C302.696 56.5867 302.141 58.8053 302.141 61.28C302.141 63.584 302.696 65.7173 303.805 67.68C305 69.5573 306.578 71.0933 308.541 72.288C310.589 73.3973 312.85 73.952 315.325 73.952ZM367.098 93.024C363.941 93.024 361.679 92.5973 360.314 91.744C359.034 90.8053 358.223 89.6107 357.882 88.16C357.626 86.624 357.498 85.0453 357.498 83.424V38.368C357.498 36.7467 357.669 35.2533 358.01 33.888C358.351 32.4373 359.162 31.2853 360.442 30.432C361.807 29.5787 364.069 29.152 367.226 29.152C369.957 29.152 371.962 29.536 373.242 30.304C374.522 30.9867 375.333 31.84 375.674 32.864C376.101 33.888 376.314 34.8693 376.314 35.808C376.314 36.6613 376.399 37.2587 376.57 37.6L375.802 40.032C375.973 38.752 376.613 37.472 377.722 36.192C378.917 34.8267 380.367 33.632 382.074 32.608C383.866 31.4987 385.743 30.6453 387.706 30.048C389.754 29.4507 391.759 29.152 393.722 29.152C397.818 29.152 401.445 29.92 404.602 31.456C407.845 32.9067 410.575 35.04 412.794 37.856C415.013 40.672 416.677 44 417.786 47.84C418.981 51.5947 419.578 55.7333 419.578 60.256V83.552C419.578 85.1733 419.407 86.752 419.066 88.288C418.81 89.7387 417.999 90.8907 416.634 91.744C415.354 92.5973 413.135 93.024 409.978 93.024C406.735 93.024 404.431 92.5973 403.066 91.744C401.786 90.8053 400.975 89.6107 400.634 88.16C400.293 86.624 400.122 85.0453 400.122 83.424V60.256C400.122 57.696 399.695 55.52 398.842 53.728C397.989 51.936 396.709 50.5707 395.002 49.632C393.295 48.608 391.205 48.096 388.73 48.096C386.255 48.096 384.122 48.608 382.33 49.632C380.538 50.656 379.13 52.064 378.106 53.856C377.167 55.648 376.698 57.7813 376.698 60.256V83.552C376.698 85.1733 376.527 86.752 376.186 88.288C375.93 89.7387 375.119 90.8907 373.754 91.744C372.474 92.5973 370.255 93.024 367.098 93.024Z" fill="black"/>
</svg>
